<mxfile host="app.diagrams.net" agent="Mozilla/5.0 (Windows NT 10.0; Win64; x64) AppleWebKit/537.36 (KHTML, like Gecko) Chrome/135.0.0.0 Safari/537.36" version="26.2.9">
  <diagram id="XZtLrDG6qXHh0-uQBOIR" name="PÃ¡gina-1">
    <mxGraphModel dx="1680" dy="914" grid="1" gridSize="10" guides="1" tooltips="1" connect="1" arrows="1" fold="1" page="1" pageScale="1" pageWidth="827" pageHeight="1169" math="0" shadow="0">
      <root>
        <mxCell id="0" />
        <mxCell id="1" parent="0" />
        <mxCell id="YhhQH7N-noh5OKzbA0su-1" value="" style="strokeWidth=1;shadow=0;dashed=0;align=center;html=1;shape=mxgraph.mockup.containers.browserWindow;rSize=0;strokeColor=#666666;mainText=,;recursiveResize=0;rounded=0;labelBackgroundColor=none;fontFamily=Verdana;fontSize=12" parent="1" vertex="1">
          <mxGeometry x="40" y="30" width="1120" height="820" as="geometry" />
        </mxCell>
        <mxCell id="YhhQH7N-noh5OKzbA0su-2" value="Odoo" style="strokeWidth=1;shadow=0;dashed=0;align=center;html=1;shape=mxgraph.mockup.containers.anchor;fontSize=17;fontColor=#666666;align=left;" parent="YhhQH7N-noh5OKzbA0su-1" vertex="1">
          <mxGeometry x="60" y="12" width="110" height="26" as="geometry" />
        </mxCell>
        <mxCell id="YhhQH7N-noh5OKzbA0su-3" value="localhost:8069/reservas" style="strokeWidth=1;shadow=0;dashed=0;align=center;html=1;shape=mxgraph.mockup.containers.anchor;rSize=0;fontSize=17;fontColor=#666666;align=left;" parent="YhhQH7N-noh5OKzbA0su-1" vertex="1">
          <mxGeometry x="130" y="60" width="250" height="26" as="geometry" />
        </mxCell>
        <mxCell id="YhhQH7N-noh5OKzbA0su-4" value="&lt;font style=&quot;font-size: 20px;&quot;&gt;Reservas&lt;/font&gt;" style="text;html=1;points=[];align=left;verticalAlign=top;spacingTop=-4;fontSize=30;fontFamily=Verdana" parent="YhhQH7N-noh5OKzbA0su-1" vertex="1">
          <mxGeometry x="15" y="120" width="340" height="50" as="geometry" />
        </mxCell>
        <mxCell id="YhhQH7N-noh5OKzbA0su-5" value="" style="verticalLabelPosition=bottom;shadow=0;dashed=0;align=center;html=1;verticalAlign=top;strokeWidth=1;shape=mxgraph.mockup.markup.line;strokeColor=#999999;rounded=0;labelBackgroundColor=none;fillColor=#ffffff;fontFamily=Verdana;fontSize=12;fontColor=#000000;" parent="YhhQH7N-noh5OKzbA0su-1" vertex="1">
          <mxGeometry y="193" width="1120" height="20" as="geometry" />
        </mxCell>
        <mxCell id="YhhQH7N-noh5OKzbA0su-6" value="Crear" style="strokeWidth=1;shadow=0;dashed=0;align=center;html=1;shape=mxgraph.mockup.buttons.button;strokeColor=#9673a6;mainText=;buttonStyle=round;fontSize=17;fontStyle=0;fillColor=#e1d5e7;whiteSpace=wrap;rounded=0;labelBackgroundColor=none;" parent="YhhQH7N-noh5OKzbA0su-1" vertex="1">
          <mxGeometry x="15" y="170" width="85" height="20" as="geometry" />
        </mxCell>
        <mxCell id="YhhQH7N-noh5OKzbA0su-7" value="&amp;lt;" style="strokeWidth=1;shadow=0;dashed=0;align=center;html=1;shape=mxgraph.mockup.buttons.button;strokeColor=#9673a6;mainText=;buttonStyle=round;fontSize=17;fontStyle=0;fillColor=#e1d5e7;whiteSpace=wrap;rounded=0;labelBackgroundColor=none;" parent="YhhQH7N-noh5OKzbA0su-1" vertex="1">
          <mxGeometry x="950" y="180" width="20" height="20" as="geometry" />
        </mxCell>
        <mxCell id="YhhQH7N-noh5OKzbA0su-8" value="&amp;gt;" style="strokeWidth=1;shadow=0;dashed=0;align=center;html=1;shape=mxgraph.mockup.buttons.button;strokeColor=#9673a6;mainText=;buttonStyle=round;fontSize=17;fontStyle=0;fillColor=#e1d5e7;whiteSpace=wrap;rounded=0;labelBackgroundColor=none;" parent="YhhQH7N-noh5OKzbA0su-1" vertex="1">
          <mxGeometry x="980" y="180" width="20" height="20" as="geometry" />
        </mxCell>
        <mxCell id="YhhQH7N-noh5OKzbA0su-9" value="" style="shape=image;verticalLabelPosition=bottom;labelBackgroundColor=default;verticalAlign=top;aspect=fixed;imageAspect=0;image=data:image/png,iVBORw0KGgoAAAANSUhEUgAAAgAAAAIACAYAAAD0eNT6AAAAAXNSR0IArs4c6QAAIABJREFUeAHt3QecbVV5N+A/iBQJgiKKFREbGntFMSb2GEvsWEKMaFRsn9EvWJMYS9DY0diNUZPYFUFQEmsssZcYu/mSWLBiAZQi5DvvdY4Zxrlzp5yZtfbZz/794MydcvZaz3rPetduayU2AgQIECBAgAABAgQIECBAgAABAgQIECBAgAABAgQIECBAgAABAgQIECBAgAABAgQIECBAgAABAgQIECBAgAABAgQIECBAgAABAgQIECBAgAABAgQIECBAgAABAgQIECBAgAABAgQIECBAgAABAgQIECBAgAABAgQIECBAgAABAgQIECBAgAABAgQIECBAgAABAgQIECBAgAABAgQIECBAgAABAgQIECBAgAABAgQIECBAgAABAgQIECBAgAABAgQIECBAgAABAgQIECBAgAABAgQIECBAgAABAgQIECBAgAABAgQIECBAgAABAgQIECBAgAABAgQIECBAgAABAgQIECBAYM0Ce675L/wBAQIECBAg0K3AAUnumOSoJMckOTbJJ5N8K8kpSc5M8j+L/vtxkm8m+XKSTyQ5IcnzkxyZ5OZJLtVtTRWMAAECBAiMVGC3JL+T5KlJ3rOQ4Bcn91l9fWqSdyd5fJIbJdllpN6qTYAAAQIEmgnst3B0fmKS0xcdyc8q2a/mfWpAUGcKHp7kos0k7JgAAQIECMy5wG8kuW+Sd06Ows9ulPS3NzA4K8lxSe6WZPc5bwfVI0CAAAECWyJwYJJnJanr9NtLwD19/0dJXpjkcluiYycECBAgQGDOBK6V5C1JzhlI4l86CKmzFK9OcvCctYvqECBAgACBTRGohPmGJOcONPEvHQjUAOaNk8HM1TdFy5sSIECAAIGBC+yb5GVJfjEniX/pQKDqVY8W7j3wdlJ8AgQIECAwE4Gdkhw+uav/e3Oa+JcOBE5eqG/V20aAAAECBEYpUDfKvW8kiX/pQOC9SS4/ylZXaQIECBAYtUA9Mlez8i1NjGP6908nsw/ec9RRoPIECBAgMBqBvZK8ZuSJf+kg50XmDxhN/KsoAQIERilQz/R/XvJf9qzHp5NcYZRRodIECBAgMNcChyT5juS/bPKfnhGoSyI3nusoUDkCBAgQGJVAXec+Q/JfMflPBwG1tsFtRxUdKkuAAAECcylw7zl+tn+atGf9WnMGHDGX0aBSBAgQIDAKgQfN0Yx+s07yO3q/mgmxVhq0ESBAgACBQQlI/ht/xLEGATVJko0AAQIECAxC4PZO+6/qev+OzgLUz+tywJ0G0eoKSYAAAQKjFrh+ktPc8DezAUANAn6W5NBRR5XKEyBAgEDXAgcl+YHkP9PkPz1L8MMkV+y69RWOAAECBEYpsHuST0r+m5L8p4OAzyXZY5TRpdIECBAg0K3AKyT/TU3+00FATRtsI0CAAAECXQjcV/LfkuQ/HQQc1kWrKwQBAgQIjFrgMklqVbtpcvK6+RY/sW7AqD9zKk+AAIEuBE6U/JsMfj6QZKcuIkAhCBAgQGB0Ak79b/7R/kpnVO4zuohTYQIECBBoLnDhJPVo2koJys8216dWV9yneSQoAAECBAiMSuA5kn8Xg59jRhV1KkuAAAECTQUul+RMA4AuBgA1VfA1mkaDnRMgQIDAaAReL/l3kfynl1jeNJrIU1ECBAgQaCZw5STnGAB0NQCoVQN/s1lE2DEBAgQIjELglQNL/mcnqUfmnpjkLkmuk2TfRS21S5ILJblqkrsn+cskxyf5+cDq+ZpFdfIlAQIECBCYqcAlBnLtv46I37mwjO4F1ymwV5J7JXlLkrMGMBiogU4txmQjQIAAAQIzFzi680RYNya+NMlVZlzzA5PUWgeVZKfX3Xt8tU7AjBve2xEgQIBAcv4k3+s4AX5w4TT+ZrZVHWG/rWODHyepVRltBAgQIEBgZgJ37DTxnZrkgVs8Le4DkpzWqUfdx2AjQIAAAQIzE3hzhwnvm5Mj8mvOrIZre6MrTm4q/LcOTY5bWzX8NgECBAgQ2L5A3TXf28Q/n0lyqe0XeUt+Ui4f72wQUPcpXHRLam8nBAgQIDD3Aod3luQ+m2S9d/fPurH2TlL3H/R0U+DDZ11J70eAAAEC4xR4XUcJ7luTO/Iv3Vkz1GDkSx0ZndCZz1qLc7Ekt05SA5nHTm5srKdP/MdADIgBMbD6GHh8kkcmuf1Gcub5Olr1r274u9Zas8kW/X5NJFTl6+FMQJWjntoY0rb/ZL6FxyX5XJKax6EHR2XQDmJADMxLDHx1kheeutb5Ym7cUWf8kM4z2mEdWd2oc6tp8WoWxucPcObFeekU1EOCEwPjioFaQK5mjr3ktBNe6bVOwfYQIB+ZTNO780oF7eRndRd+D15P6MRjpWLcJsl3OvHqoc2UoY/PjnbQDmOIgZ8muetKHXT9rKbCbY1RU/FefUcF7eTnV+pk6uD3dOKxvWI8yqn+5p+r1p9r+2/ft2qDcbdBXW7985Xm0aln7VsHyau2l0U6/f7zOjCriYp26tSnrvW3jin71wZiQAyIgV/GwDHL5Ypa/KcHoFaT/Sxnsprv1fwEdZ2ltV1vT0uU3b0d+TePi9Zxaf/t+wZtoA2WxsCDlia3W3WQxHo/lb3UbPrvd3Rgd8tpYTp5vXxHT0osDX7/1iGKATEw5hioS+03XJwrao791iD3XFygAX195w7sHtqZVy3R3Dqe7F8biAExIAaWj4G62f5Xl46f3rjDPifJRTpLYqstTj2H33pegGWv66y2AjP+vZs2jiUf+OU/8Fy4iAExsDgG7jLt+9/YuNOuefaHvL27sd+7OsI7trHF4gD3tQ5PDIgBMbB8DNRU+9u2DzXutP9qWpCBvv5lY79PduK2XyePRvrAL/+B58JFDIiBxTGw7cb7zzdOYLUI0ZC3323s95VO8Oo+jsXB5WseYkAMiIF+Y6AmAMw3Gnfcv9VJAltvMQ5u7Fez7PWw1b0IPuwMxIAYEAPDiIHjK3G0vontMj1krw2UoU59twz40zdQ9ln+6UmNHVq2gX23/Qzw5y8G1h4DtXBQ88ls9phlFmrwXrt0MOlNlaH19hkDgKYDQR3g2jtAZszGHAO1TkDObNxx79U6c81g/wXZMpAuOIM6bPQtvtzYoKW/fbeNf/78xcDaY6Bmsk2dQm6Jt+9GM0/jv68JFVpPCbxrY4PavTMAbT9HLT/D9q3txcDwYuAn1XHX/1o2Xq1FMORtz8Z+20ZxHQDWfAQt48i++YsBMSAGVh8D254g+27jjvuQDpLXRopwxcZ+267jbKQCM/rbHlZH9OFf/YefFSsxMO4YeHv1/a3nAbj/jBJQq7e5feMBQC+PAd69sYPObNydmfbX/mJgbTFwVCXNWomvJdxzW2XuGe33MY396tp7D1vdy9H6htKWcWzfbfsR/vzFwNpi4GqVOF7XOIH9Sw/ZawNlaL363XEbKPus//QtjWNJB7C2DoAXLzEwzhj49LTzf3bjTrtuYtt/WpiBve6W5LTGfi/qyOzQxhY6s3F2Ztpdu4uBtcXAvad544EddNpHTgszsNc7dWD3uM7M6oyEDyMDMSAGxECfMVBH/+eb5o2bdNBh130IQ9ze3IHdnTuDu2ySUzpw0fn02floF+0iBtrFwBlJrrc4Z9TNW60b5Nwk25YmXFywzr++dCc3vVXC7W27RZKzO4ir1nFt/+37Fm2gDcTA/8bAA5ZLFid30Fm/dbmCdfy9F3Zg9qMkNRNhj9tDO/Dxwf/fDz4LFmJg3DHwrO0lih5OZddZgGtvr4Cdff/ySepUSusP1Ps6c1lanPsk+XkHTq3byf7bf1a0gTYYawycM+mH65n/7R4s/kknnfT7F9+csDSbdPTvEzvxelpHJtsryg2S/FcnXmPtANRb8hMD44yBuh/rdtvrnKffv35HHfRjp4Xq9PXwjqxu3qnR0mLVks81Aq1LFjoiBmJADIiBzY2BmpTtxUn2W9oZL/fvWk++9aJA04A4K8l1lytkB987uIPn/qdOP0uyewcmaynChSdx9sgkH+1gBcWpo9fN7Yj48hUDWxMDdRn9c0memKRuUl/T1npGwMVB8p/rqcCaarv2X66RVE9r3p+09ip09Rf7JPntJPdL8qcLZwjqLIH/GIgBMSAGVh8DtZ7OLZNcbCM9/GGdnZ6tZNvLDIG/sXDUuniQ0vrrh22ksf0tAQIECBCYClywkzvbFyfWf9voqGZauQ281pH/xzobHA15+uQNNIU/JUCAAIHNEuhxGtdvJrnRZlV4B+971SRf6Sz51wDpn3ZQbj8mQIAAAQJrErhjh8muEl7dGFinvLf7HOOaarm6X65r06d36lFlsxEgQIAAgZkJ1NMAdcS9+DR8T1/Xqfgbz6y2y79RTfLTeonflczraY26XGMjQIAAAQIzFXhyxwOASoz1qMNrklxlprVODkry8k7m919pAPCcGdfb2xEgQIAAgW0CvSxys1ISnP7sw0mOSLLXOtvuAknq6Yd3DOS59JrSsQYqNgIECBAgsCkCdSQ8TbJDeK2V5z6e5HkLCb1mNrzcolPlNRPdRRdWHLzH5F6CJyWpaYdrtqQh1G9axmM3pbW9KQECBAgQWBCoo0zLufY1OKhLHzWwsREgQIAAgU0VeO3Ajo6nR8nz+vrGTW1tb06AAAECBBYE6hS6pVz7OAtQE//M+qZHgU6AAAECBLYrcLSzAF3cI1D3ZNgIECBAgMCWCdTd9d82CGg6CPjhapd03LKosCMCBAgQGIXA4QYATQcA9ZijjQABAgQINBHocY2Aeb3Zb3G9PrjF0x83CS47JUCAAIF+BeoZ+u86E7ClZwJOS3KlfkNCyQgQIEBgLAJ3MgDY0gFAXXqxESBAgACBLgReahCwJYOAmoPBRoAAAQIEuhHYLclHDAI2dRDw+Q2sbdBNoCgIAQIECMyfwP6dLxm8+Ca6oX39gyS1HLGNAAECBAh0KXDDJKc7EzDTMwFnJDm0y9ZWKAIECBAgsEjgNgNcTa/XMwK1zO+9Ftn6kgABAgQIdC1QTwbUPPW9JtYhlKtW+Xtg162scAQIECBAYBmB+yepI9ghJNveyljJ/8HLmPoWAQIECBAYhMBhLgeseQBUg6YjB9G6CkmAAAECBFYQuHmSU50JWNVAoG74u/sKln5EgAABAgQGJXDI5Hr2yQYBKw4CTklyk0G1qsISIECAAIFVCFzCZEHbHQB8LskVV2HoVwgQIECAwCAFdk3yPGcCzjMQeE2SPQfZmgpNgAABAgTWKFDXuWt2u97uvt/K8tR9EUes0c2vEyBAgACBwQvUUsJvHekg4P1JrjD4FlQBAgQIECCwAYFa3vbbIxkI/GjhqH+nDXj5UwIECBAgMDcCdQ38L5L8fE4HAmcleUmSi81Ni6kIAQIECBCYoUCtePf3czSNcM3o92an+2cYId6KAAECBOZa4MCFpwWGekagZvM7Lsn15rqVVI4AAQIECGySwGWSPCXJtwZyaaAm83lOkgM2ycPbEiBAgACBUQnskuT3kxzf4doCdX3/7UnummS3UbWKyhIgQIAAgS0U2DtJLTL0+iQ/bXRm4MdJ3pjkfknqcUYbAQIECBAgsIUCdWbgBpPFhh6V5Ngk39+kAUE9pljv/4QkN51clqj92ggQIECAAIGOBOqI/LeTPCjJc5O8LklNvPOFhQFCXaevVfems/6dtjAPwReTfDTJW5I8M8mDJ2sX3DrJpTqqm6IQIECAAAECBAgQIECAAAECBAgQIECAAAECBAgQIECAAAECBAgQIECAAAECBAgQIECAAAECBAgQIECAAAECBAgQIECAAAECBAgQIECAAAECBAgQIECAAAECBAgQIECAAAECBAgQIECAAAECBAgQIECAAAECBAgQIECAAAECBAgQIECAAAECBAgQIECAAAECBAgQIECAAAECBAgQIECAAAECBAgQIECAAAECBAgQIECAAAECBAgQIECAAAECBAgQIECAAAECBAgQIECAAAECBAgQIECAAAECBAgQIECAAAECBAgQIECAAAECBAgQIECAAAECBAgQIECAAAECBAgQIECAAAECBAgQIECAAAECBAgQIECAAAECBAgQIECAAAECBAgQIECAAAECBAgQIECAAAECBAgQIECAAAECBAgQIECAAAECBAgQIECAAAECBAgQIECAAAECBAgQIECAAAECBAgQIECAAAECBAgQIECAAAECBAgQIECAAAECBAgQIECAAAECBAgQIECAAAECBAgQIECAAAECBAgQIECAAAECBAgQIECAAAECBAgQIECAAAECBAgQIECAAAECBAgQIECAAAECBAgQIECAAAECBAgQIECAAAECBAgQIECAAAECBAgQIECAAAECBAgQIECAAAECBAgQIECAAAECBAgQIDACgQsluVqS30tyRJIjkxyV5M+SHJ3k8UkesfCzuyW5dZLrJ9l7BDaqSIAAAQIEBi9wgSSHJnlokpcl+USS05L8zwb+OznJe5O8OMkjk9w4yS6Dl1IBAgQIECAwYIGdk1wvyWOTvDvJGRtI9GsZJJw6OUNwQpL/m+Q6Sc43YENFJ0CAAAECgxG46qSkf5HkP7Yo4e9ocPDDJC9ZOPswGEQFJUCAAAECQxDYd+FI/+udJP3tDQo+N7ns8OjJgODiQ0BVRgIECBAg0KtA3bxX1/N/1nniXzogOHOh3Af1CqtcBAgQIECgR4GDk7xhcqf+uQNL/EsHAudM7hM4Lsm1ekRWJgIECBAg0IvAgUlenaQS59JkOuR/V31el+RSvUArBwECBAgQ6EHg/AvP4m/0sb3eBwmnT7DrBsZde0BXBgIECBAg0FLgJkk+P2dH/DsaiHw5yS1aots3AQIECBBoJbB7kufOwXX+HSX77f287m94QZLdWjWA/RIgQIAAga0WuHKST4/sqH97A4FPJbn8VjeA/REgQIAAga0W+MMBPta3veQ9q+//JEmtQ2AjQIAAAQJzJ1BT99biO7NKmvP4PnVJpJxsBAgQIEBgLgT2TPIWyX9Vg59yqvsjbAQIECBAYNACtazuRyT/VSX/6VmN9yS54KBbXeEJECBAYNQCF0ryUcl/Tcl/OgiodQUuMeroUXkCBAgQGKTARZN8VvJfV/KfDgJqfoQLD7L1FZoAAQIERilwgST/KvlvKPlPBwF1BqXuobARIECAAIGuBWpa3xMl/5kk/+kg4Pgku3Td6gpHgAABAqMW2CnJKyX/mSb/6SDgtUnK10aAAAECBLoTeJTkvynJfzoIOKq7FlcgAgQIEBi9wCFJzjIA2NQBwNlJDh19pAEgQIAAgW4E6o7/b0r+m5r8p2cBvjFZROgi3bS8ghAgQIDAaAXquvS7JP8tSf7TQUDdFOh+gNF+5FScAAECfQjcT/Lf0uQ/HQQ8oo/mVwoCBAgQGKPAxZOcYgDQZADw0ySXHGPQqTMBAgQItBd4m+TfJPlPzwK8vn0IKAEBAgQIjE3gZpJ/0+Q/HQT87tgCT30JECBAoJ1ArVn/KQOALgYAX0myW7tQsGcCBAgQGJPAfSX/LpL/9CzAw8YUfOpKgAABAm0E6miznkWfJh+v7S3+O8mubcLBXgkQIEBgLAJDfezvzCRfSHJCkr+ZPEf/pCRHL/z33CRvSfLVJL8Y6ODm/mMJQPUkQIAAga0XqMlnKokO5aj/35M8K8mtk+yxSq76vZrW+OlJvj6gun7NioGrbGG/RoAAAQJrFrj9ABJiHcG/aYZz5l8nyauS1Dz8vQ987rPmFvUHBAgQIEBgFQLv7jwJvi7Jgauox3p+5QpJXt35JYJ/XU/F/A0BAgQIEFhJ4IAk53Q6AKiFiO60UuFn+LPrJalH73o9G3DlGdbVWxEgQIAAgTyx06T3D0n23OL2+Y0kr+zU4ylbbGF3BAgQIDDHAnXzX90h39tRbyW7lqviHZnk3M5c/rOxyRx/DFSNAAEC4xO4QWdJri5FHNFJM9SkSL09OnjTTmwUgwABAgQGLvCXnQ0AHt2Z5z07OxPwgs58FIcAAQIEBirw8Y4GADWJT4/b0zoyqrkahrjtnuSOSZ6f5ENJvpPkjI5ce7sEpjz9XZbUJtqklxg4K8n3knwsyUuTHDaZF2evtSaGi3V09/97O57s5nxJ/qmTZFX3JVx8rQ3d8PcvsTBh04868evlA6wckokYEAOzjIHTk7w8ST3WvqqtJpeZZQHW+14/X0uhV1Wz2f/Sfkl+0InXvWZfvZm/Yw2a/jTJaZ2YrTc2/V0ffYR20A5iYHUxUGcHnjGZCr/Ouq64HdNJ5/z4FUvZzw9rZb4egrBGeT1vF03yvk6semgvZejjc6MdtMOYYuAjOzpbXLPLtQapiXeGstrd+ZN8sQOzWhug1+0ynU+m1Dre7b99n6MNtMFYYqBW9736csmikm4PN2E9eLnCdfy9mpWwdfDUfQBbPUHSaprkIpObUb7UgU/r9rH/9p8RbaANxMAvY6AGAfsv7cCv3UFH/cNOE9lSq8X/3iXJtzqwu+biQnXw9c5J3tmBiw+9jl8MiAExcN4YqMsBuy3OE3fvoLM+enGBBvT1Uzuwq8c+etrqTI4PHQMxIAbEQJ8x8KTFCeMxHXTY119coAF9fVAHdn/ekdc+SU7pwETH02fHo120ixhoHwOnLr4UUJMHtGyUeqSuThsPdWu9fkItlNTL9rjGsdQyju27bT/Cn78YWH0M/GqyvZMad9qv7yV7rbMcr2rsV7Pp9bDVgk3/r7GFDmD1HQArVmJgvDFQ87LUirf5RONO+xE9ZK8NlOGPG/t9fgNln+Wf1mUcHQoDMSAGxMAwYuAelQDqWfKWDXaHWWahBu91vcZ+/9Wgzsvtsod7SVrGsX237Uf48xcDa4uBl1RH3npa22UnJ1guw3T6vQMaDwDqprsetn9s7ODDv7YPPy9eYmDcMVCPBObMxh333j1krw2Uoa6jtPwgnb2Bss/yT3uYTbJlO9h3288Bf/5iYG0x8N1KAJVAWsJdYJZZqNF71SJGYzes5YlbGtg3fzEgBsTA6mOgZgBO6+RVz44PfavlF1sG3ra7ORsjGgC0jYGW8Wff2l4MDC8Gtg0AalKAlo1XK8YNeaspgVv61b5ryd3Wm0sA7eOgdRzavxgQA8OJgW2XAFrP3Hb51plrg/vfr/EAoM7g9LDVhEQ+/AzEgBgQA8OIgW03AbaevGXojwEe0jjx1UJKPWxHNXbQ6Qyj09FO2kkM9BEDL67E8dHGHXdNHzvk7b6N/f6jE7zW8yHoVProVLSDdhADw4iBu1XuOK5xAvv7ThLYeotRcyq3DPgPrLfgM/67mgq4BiMtLeybvxgQA2JgxzHwq6mAX9G40z65k5vY1psPv9TYr6cB1GMbW/jg7/iDz4iRGBADtQjgtu0JHXTaN50WZmCvPSwH/PSOzGpSp7onQQfDQAyIATHQZwzU5H+Xm+aNu3TQYR8zLczAXv+sA7sHd2b2wA5MdDx9djzaRbuIgfYx8FeLc8bBHXTYdRlg98WFGsDX9ex964WU6sN0o86s6l6AN3YQUzqa9h2NNtAGYqCvGKjl43dbnDPO38F6ABUkD1tcqAF8fVgHSe6c6ZrOnXntkeTjHfjofPrqfLSH9hAD7WLgW0kuuVyu+EQHnXUVrhLHELadk3yuA7Mvd4x1qU6MdDjtOhz27MVAHzHw30mutr188dwOklkFyp9sr4Cdfb+uu/cQ2DX7Xs/bXkne1olVD+2lDH18brSDdhhTDHw4yf4rJYq7dtJJ17OJV1qpoB387GJJWk+fPA3eB3TgsaMi1NmSurzz/U5ibGrnVRIQA2JgnmOg7vZ/2tJr/st12DU66AWiLkfsulwhO/heJbOTOrL61aMcHdjsqAgXTPIUjwl28znr5fOuHP30vdpiPtqiDqRfsvhRvx11zvXzz3aU2J65mgI3+J2/6Mjo6w3qP4td1h2ot0vyvCQ1i2E9AdJ6SWod33x0fNpRO44tBuoov1b1q9VYX5Tk7uu9MfxJHSW3asT/O4tsM8P3+KMk53ZktG0hhxnWz1sRIECAwEgFrtVRcqsBQCXbIztpi3skObszn5t1YqMYBAgQIDAHAq2XBl56+qaec6/55WtymVZb3cBW5Vhatpb//vbA109o1Zb2S4AAAQLbEXhyZ4lummRrxcILbafMm/XtmpmwrlNPy9DT67M3q9LelwABAgTGKXDZDo92p4n3q0luvkXNcuMk/95p8i+P626Rg90QIECAwIgETuw48VXye3uSK25SexyQ5G87u9lvOgCavn5kk+rubQkQIEBg5AJ36nwAUInwrMkgoGbBqzMC9Wz+RrfrJHnFwvtOE22vr/fcaGX9PQECBAgQWE6gVrn70gAGAdME/R9Jnprkd5Pss1yFlvleTTT0W5ObC+vRx55P9U/rOH2t9RJq8SYbAQIECBDYFIH7DmgAME2O9Vp36//bwmWCOpVfEwrVUwQ1HeILkrxp4ednDLR+f7opre1NCRAgQIDAgkAdZdaR9eLk6uu2HvXo3wVEKAECBAgQ2GyBWmhG0u/H4CGb3eDenwABAgQIlEDdC/AZg4AuBkE1QVOvCyT5tBAgQIDAHAoc2vkjcWM5Q3HnOYwtVSJAgACBzgXqxrmxJNoe61nzMtgIECBAgMCWC1w6yY8NApoMgk5PcuCWt7gdEiBAgACBBYHDDQCaDAB6WxLZB4IAAQIERijgUsDWXgp5nxX/RvgpU2UCBAh0KHDRJCc7E7AlZwK+l+TiHcaAIhEgQIDASAXqqYCah7/Hm+XmpUw1m+HvjTS+VJsAAQIEOhY40gBgUwdAj+u47RWNAAECBEYuUCvnzcsRd0/1eM1kgaKdRh5bqk+AAAECHQvUWgEnGATMdBD0oSS7d9zmikaAAAECBLYJ7JHkAwYBMxkEfDbJvuKKAAECBAgMRWDvJJ8yCNjQIOBLSS42lAZXTgIECBAgMBW4yOSu9Y8bBKxrEPD4hY/NAAAUOklEQVTFJPtPIb0SIECAAIGhCeyZ5CSDgDUNAj6WpOZWsBEgQIAAgUEL1A1sbzUIWNUg4PgkNWiyESBAgACBuRDYOclTLCG84iDgxROjXeaitVWCAAECBAgsEbidFQR/bRDw8yQPWOLknwQIECBAYO4ErpLkcy4JbBsIfDnJ1eeuhVWIAAECBAhsR2C3yeQ2Ryf5xUgHAudOHvF7UZK9tuPj2wQIECBAYK4FbpSkjoJ7mnZ3s8vytSS/M9etqnIECBAgQGAVAnU24KgkP53zgUBd66+zHhdYhYlfIUCAAAECoxGode5flaSWvd3so/CtfP863f/aJAeMpiVVlAABAgQIrEPgqgsJc+j3B1Tif3uS66zDwJ8QIECAAIHRChyU5GVJfjawMwJnJqllketpBxsBAgQIECCwToF9kjxsAI8O1vz9j0tyiXXW058RIECAAAEC2xG4weQmumck+WonZwW+leSFSapcNgIECBAgQGALBH5z4Yj7XUlO3aIBQZ3e/0CSxya5ZpKdtqCedkGAAAECBAhsR6Dm0L9ukodPTsG/NMm/JPnBBgcFP1xYzrieTHhIkusnqUcWbQQIECBAgEDnAvsluVqSW0wuG9w7ySMX5hyoeQeeuPBc/mOSPHjh57ef3Ll/7SR134GNAAECBAgQIECAAAECBAgQIECAAAECBAgQIECAAAECBAgQIECAAAECBAgQIECAAAECBAgQIECAAAECBAgQIECAAAECBAgQIECAAAECBAgQIECAAAECBAgQIECAAAECBAgQIECAAAECBAgQIECAAAECBAgQIECAAAECBAgQIECAAAECBAgQIECAAAECBAgQIECAAAECBAgQIECAAAECBAgQIECAAAECBAgQIECAAAECBAgQIECAAAECBAgQIECAAAECBAgQIECAAAECBAgQIECAAAECBAgQIECAAAECBAgQIECAAAECBAgQIECAAAECBAgQIECAAAECBAgQIECAAAECBAgQIECAAAECBAgQIECAAAECBAgQIECAAAECBAgQIECAAAECBAgQIECAAAECBAgQIECAAAECBAgQIECAAAECBAgQIECAAAECBAgQIECAAAECBAgQIECAAAECBAgQIECAAAECBAgQIECAAAECBAgQIECAAAECBAgQIECAAAECBAgQIECAAAECBAgQIECAAAECBAgQIECAAAECBAgQIECAAAECBAgQIECAAAECBAgQIECAAAECBAgQIECAAAECBAgQIECAAAECBAgQIECAAAECBAgQIECAAAECBAgQIECAAAECBAgQIECAAAECBAgQIECAAAECBAgQIECAAAECWyawf5LbJHlEkmcleX2SDyX5epLvJjklyTlJ/ifJGUl+sPCzTyf5YJJjkzwjyf2THJrkIltWcjsiQIAAAQIEViWwS5IbJfmzJCcmOXkhsVdyn+V/P0xyQpJHJ7lOkp1XVTq/RIAAAQIECMxM4EJJjkjytiQ/mXGiX+2goc4ivHUy4HhgkiqPjQABAgQIENgEgT2S3CvJ25Oc2Sjpb29wUJcR3pTkDknOvwl195YECBAgQGB0ApdK8rQk3+8s6W9vMPC9JM9OcunRtZQKEyBAgACBGQhcNcnrkpw1kMS/dEBQZyleluSgGVh4CwIECBAgMPcClTBfs+gu/aWJdWj//kWS106eRDh47ltOBQkQIECAwDoE9pk8bveCAR/x72hgUmcynjl5LHGvddj4EwIECBAgMJcCt5/c1f+NgZ7q31HiX/rzbyc5fC5bUaUIECBAgMAqBS4zeYb/pJEk/qUDgXclOXCVTn6NAAECBAjMjcCdk9TkOksT45j+XXMY3H1uWlRFCBAgQIDACgJ7Jnn5yBP/4kHOuZOJhJ43edRx1xXM/IgAAQIECAxaoJ6Nr/n2FydAX//S4+MuCQw6thWeAAECBLYjcK0R3ei33kFNXRI5ZDt+vk2AAAECBAYncJckP3Pkv6ozH6dOVi685eBaWIEJECBAgMASgcOSnC35ryr5T88c1CyC91zi6J8ECBAgQGAwAveboxn9psl5q17PSfLgwbS0ghIgQIAAgQWBSv51h/tWJcx53E8NAmoFRBsBAgQIEBiEwG2d9p/ZwKemEL7NIFpdIQkQIEBg1ALXTVI3ss3jEXmrOp0+mTHxRqOOKpUnQIAAga4FLju5bv1dyX9TBj/fs7Rw17GvcAQIEBitwG5JajKbVkfJY9jvZ5PsMdoIU3ECBAgQ6FLgxZL/lgx+jumy9RWKAAECBEYpcG/Jf0uS//QsR02sZCNAgAABAk0FLpnkxwYAWzoAKO/LNW11OydAgACB0Qu8TfLf0uQ/PQvwviQ7jT76ABAgQIBAEwGn/tve9FjTLNsIECBAgMCWCuyT5PuO/psc/U/PAnw7yQW3tNXtjAABAgRGL/DXkn/T5D8dBDxn9JEIgAABAgS2TOCAJD83AOhiAFArLV5ty1rejggQIEBg1AL/IPl3kfynZwFeP+poVHkCBAgQ2BKBK1nit6vkX4OAWjXwqlvS+nZCgAABAqMVeNnAjv4rOX4syVOT1FMLN05yiYVH6Gr64gsluXCSayf5g8lUu0+f/M4/JalV+KZH2EN4/bvRRqSKEyBAgMCmC+yf5IyBJMb3Jrlnkn3XqVKDgj9K8o4kvxhAnetegAPXWVd/RoAAAQIEVhSoo+iej4YrCdaR8LVWrMXaf1iXPV47gIHAC9ZeNX9BgAABAgRWFtglyXc6HgB8NMk1V67Chn965SQndGxwSpK6rGEjQIAAAQIzE7hdp4nv9CQPT3K+mdV05Teq6XcfkuRnnXrcdeXi+ykBAgQIEFibwBs7THgnT67RX29t1ZjZb18lyRc7NDl2ZjX0RgQIECAweoG6Ia63m/8+n+SyjVvmokk+09kgoJ5e2K+xi90TIECAwJwI3KezJPfvC4/v9cBbjxHW/Qc93Rz50B5glIEAAQIEhi/Q08x/ddq/9ZH/0hathZG+1tEg4PilBRzYv+uM082SHDGZcvoo/zEQA2JADKwrBh6Y5FZJLr7eHFA31/2gk+RWN/y1uua/I79rJKny9XAm4KdJ6qmNIW112eLRST5hpskuYqiHOFaGPvoT7TAf7VCXzf88Sa3ls+rtkE6SWgXhI1Zd6ja/eHhHVtVuQ9hqOeNndjR40tnNR2enHbWjGFg+Buo+sVckqYn9drjVKdgeID++hY/67RBlhV84sROvx69Qxl5+dPMk3+rEq4cYV4Y++hrtoB3GEAM/SnLHHSWDN3fQQdcMf7Oe3W9H9V7vz+vxwCpv6wD65/VWYIv+7mFO9TePkdYxav/t+wltMO42qLVyHruwNs6yXf9/d5DMXrNsyfr95gs7MDt1pUZtTFfX+nU8DMSAGBADfcTAs5fLCXXnYA8NdJ3lCtfx9y7TydHtpTo0ukeSczuJqx5iWxn66GO0g3YYewzUU1fn2W7ZQUf9/vOUaDj/eGcHdrfojKtWK/xJBy5j/6Crv2QnBsTA0hg4c+lTdn/cQWd9786S2GqLc7cO7GrNgp62Wlp5adD5NxMxIAbEQB8x8MHFCePoxh123aBQ0+0Ocdt18lz7aY39nt8R3KGNLXQwfXQw2kE7iIG+Y+D3p3njDY077U9OCzLQ1/c09qvLEL1sb21sodPpu9PRPtpHDPQRA5+eJo0PNe60nz4tyEBfn9LYr5cB1L6TR03q+pIPOAMxIAbEQP8xcPXKuTV1YMvG+sOBJv5psW/b2O8r04I0fq07/1vGkX3zFwNiQAysPgYeUznjG4077ps2Tlwb3f3Bjf1q4aQetroXwYePgRgQA2JgGDFwXCWOWlSmZYPV8/RD3uoGxpZ+tThRD9tJjR1atoF9t/0M8OcvBtYeA9vOHv+icce9Rw/ZawNlqBX5Wk9608OqgJ9pHEc6gLV3AMyYiYHxxkAd/De/cWuvDSTfXv609VmUWm2v9fZlA4CmZ4J05OPtyLW9tl9PDNTBf/P17evu8SFvO3WwMNBuHQB+1gDAAEAMiAExMJgYqBlbm0/bWmsRDHnbs3HAbxvFdQDoHgBHIes5CvE34kYMtImBr1be+G7jBHbDDpLXRopwhcZ+267jbKQCM/pbTwG0+RDrPLmLATGwnhjY9hRA63kAfm11ohklpK16m9s1HgB8Z6squoP9HNbYYT0fAH+j4xQDYmCsMbBtHoDWU9k+ZweJpfcfH9U48dW19x62iyQ5q7HFWD/I6i2JiQExsNYYuEYljtc17rQ/0EP22kAZTmjsd/wGyj7rPz22scVaPwB+X6cpBsTAGGPgVweOdQTeEqBuYhvyaoCnNvZ70ayz+Abe77caW7SMY/tu24/w5y8GVh8Dh0/7+Qd10Gk/cFqYgb3eoQO7x3dmdmIHJjqC1XcErFiJgXHFQB39/2ryuJqLv3UA/HNnSWy1xXljB3Z3WW1ht+j3Dkry4w5cWse0/bfvV7SBNhAD542Buk/rkMW5YL8OOutzklxtcaEG8PWlO5hFsYK7Em5v222StJ5i2gf/vB98HjzEgBhY9mx767kAKjDf1FsW20F5julg4FRH2jUTYY/bIzvw0eHp8MSAGBADv4yBmqtl2e2tHXTWtaDO1ZctXX/fvFySn3dg9v7+aM5Tovt1cpZEByAJiAExMNYYqNz6xJUOFh/VQTKrxnl3kp3Pk0L6/EfNoNRDMB3dJ895SnVokm914tVDmylDH58d7aAdxhADdZb4zufpkZf5xw066qAfvUz5evrWvTqyukVPMCuUpdZLeEKS1qsmjuEDr44SmxgQA2cneWWSVa21c/4krZ9nnwbtGUmuuUIyafmjK3aUxOoSxB4tMdax77rhtGZO/HSSOi01bXOvLMSAGBADG4+BLyV5cpID19o/v6GjDvlrSS6x1gps8u/XssVf6MhoqI9OTpupBgO3SnJkkpqTui5n+I+BGBADYmD1MVDzwDw8yW2TXGraua7ntadT2zUSrGRbSaKHrU5hf7ij5F8+j+gBRhkIECBAYPgCe3d4x3adKq5FZlpudeTfW/KvZ+x7O0PSso3smwABAgQ2KPCOzo5y60j3v5Jcb4P1Wu+fX6mz0/7Ta2T1tISNAAECBAjMTKAeF5gmmZ5e68bAZWcwmlnNf/2N7tPRjZFL2+L+v15c3yFAgAABAusXqAUCen5m+71JrrX+6q3qL2uSnx7PhEwHAfUoXV2usREgQIAAgZkKPK3TswDTBFjrBrw8yeVnWuvkgMlNhy+c3JFeZxum++rxdbvTOc7Yw9sRIECAwMgELpukVgzqMfktLlM9R15nBOpU/Xqfh98tyZ2S1FTIQ6hzDX6uMLJ4VF0CBAgQ2EKBvx3AAGDxYKCO2j+Y5BmTSWbuuLCmwCUnz5XvvsjsQkkOTvL7SerZyZOSnD6weh6/qD6+JECAAAECMxeou9/nZTnX3k/pLx7IrPR1nfG4/sxb2hsSIECAAIElAv84sKPjlZLnPPysLlPYCBAgQIDApgscNIAb4uYhsa+mDnXt/xqb3uJ2QIAAAQIEFgSe6SxAFzdD/p2IJECAAAECWymw12QCnpMNApoOAmo951Ut6biVgWFfBAgQIDD/AvczAGg6AHjQ/IeYGhIgQIBAjwI7JXmnQUCTQcC/Jtm5x6BQJgIECBAYh0CtPPdDg4AtHQScluTK4wgvtSRAgACBngXubQCwpQOAI3oOBmUjQIAAgXEJDG2GwNU8Ytfj77x+XGGltgQIECDQu0BNrftxZwI29UzAF5Ps03sgKB8BAgQIjE/g0km+axCwKYOAus/CYj/j+0ypMQECBAYjcJMkPzMImOkgoFYj/O3BRICCEiBAgMBoBW4/WVXvbIOAmQwCaqGfPxxtJKk4AQIECAxOoJ4MqHnqe7yRbihlquR/5OBaXoEJECBAYPQClbwqiQ0l4fZWzv8z+ggCQIAAAQKDFTjc5YA1D4Bq0CT5DzbkFZwAAQIEpgK3c2PgqgcBZya51xTOKwECBAgQGLrAb02uZ3/P5YAVBwK1ut/Nht7Qyk+AAAECBJYKXCbJJwwClh0EfCHJVZaC+TcBAgQIEJgXgd2SvMIg4DyDgLck2XteGlg9CBAgQIDASgJ/kORHIx8InO4xv5VCxM8IECBAYF4F9k9y3EgHAR9McqV5bVj1IkCAAAECOxLYKckDRnSD4E+TPCRJ1dtGgAABAgRGL1Cr3B2dpB6D621CnlmUp2ZFfHWSi4++pQEQIECAAIFlBA5O8qY5m0b4eHf4L9PSvkWAAAECBJYROGhytPySAc8iWEf8dX/DDZepm28RIECAAAECOxCogcBfD+gegbrG/zdJLr+DevkxAQIECBAgsAqBXZPcI8lJSX7R2X0CVZ53JakVEC+wirr4FQIECBAgQGAdAvsmuW+StzVcY+C0JG9P8uAkl1xHHfwJAQIECBAgsAGB3ZPcZHKvwOOTnJjkJ5t0duCHk+v570zy5CS3mjyxUPu1ESBAgAABAh0JHLCQpGtJ3boef+zk3x9O8vUkdeS+9LG+OoV/ysLPP5XkHUmOWViS9w5J6j4EGwECBAgQIECAAAECBAgQIECAAAECBAgQIECAAAECBAgQIECAAAECBAgQIECAAAECBAgQIECAAAECBAgQIECAAAECBAgQIECAAAECBAgQIECAAAECBAgQIECAAAECBAgQIECAAAECBAgQIECAAAECBAgQIECAAAECBAgQIECAAAECBAgQIECAAAECBAgQIECAAAECBAgQIECAAAECBAgQIECAAAECBAgQIECAAAECBAgQIECAAAECBAgQIECAAAECBAgQIECAAAECBAgQIECAAAECBAgQIECAAAECBAgQIECAAAECBAgQIECAAAECBAgQIECAAAECBAgQIECAAAECBAgQIECAAAECBAgQIECAAAECBAisSuD/AyULMgAArUkGAAAAAElFTkSuQmCC;" parent="YhhQH7N-noh5OKzbA0su-1" vertex="1">
          <mxGeometry x="1042" y="181" width="18" height="18" as="geometry" />
        </mxCell>
        <mxCell id="YhhQH7N-noh5OKzbA0su-10" value="" style="shape=image;verticalLabelPosition=bottom;labelBackgroundColor=default;verticalAlign=top;aspect=fixed;imageAspect=0;image=data:image/png,iVBORw0KGgoAAAANSUhEUgAAAgAAAAIACAYAAAD0eNT6AAAAAXNSR0IArs4c6QAAIABJREFUeAHtnWvMrGdVhu+WDYVaBYWCaSkqHhATQqxF1NB4ABUtNGqMGgNRE0QFiX+MMQb8oWAMxgMoP0QbrGCAGNEfCkbxUMVEEggiJFgr1UqlR2yh9HzAubczX/be3/7mmzXzzvuu9a7rSXb26flmnnWtez3rnnfeg1RrPErSl0h6tqTLJV0h6YclvVzST/ILBms08BOSXiLpSknfIulrJT1d0mNqlQCrHZCAc28NWAvfvNSGNWKtsJ/AYJ0G3HPce1607EXuSe5N7lGMAQg8aQn4dyT9o6QbJd0m6RZJt0q6XdKdku6W9ICkB/kFg2M0cM9SM59aashasqY+Ken9kn5/obOXSbpkAP3yErkIOKfOrXPsXDvnp+4n1oT3E2uEvQQGx2nAPce9x5pxL3JPWu0n7lXuWe5dNgnuZYwNCNiN/7ykjy6huhg/xy8YjKiB+5fFfL2kX10ebdpAukxJSMCfypxD59IbtHPLfgKDMTXgHmaD4J7m3uYex1gSOEfSZZJ+U9J/Lx25ndWYCeK94H2UBh5eFu/Ni8N7b5H0rZJOUL1pCTg3zpFz5Zx543UOj8ov/w6bMTXg3uajTu517nnufe6B7YZd0FuXMFykj1CkbFIFNHCHJB8q/gtJX9euavMG7Fw4J86NczTmps57wXsbDbjnuffZELgXtjgy8MTF96tXSfpfmj6bVPGN2o3mPV0KN2nv96bpHND0acLbNOEsP2Mz4J7o3ugeObvxOEm/tHToPrkiC3jWQS520YAL183Hh5w50We8bcuszdzsOXpIDe9Sw5l+1r3RR7HcK90zy49zl5fU+OzIe2n8GJ+ZasCFawf/Wknnl6/avAGYrRmbNR8kaPyZmveQa3GvdM/05ajuoSWHr4+8QdJdM930h0w4rzWPzcyF67PNX8H1wIPuWb622kzNlg8S86gV9rzj8+je6R7qXlpm+NDFuyV9msbPJ/6mGnDh+rKfp5Sp2rwLNUOz5IPE8Q2DpjpPRu6l7qnpvxa4SNK/La53vK/pxk8BzrMAt8mrLz+7aXmXubztNffKfIc+M+RSPupqmxqc08+4p7q3usemHM9Zfm/BSTkU65wKb9dY/H31D6as2NyLMjOz25U/Pw/DuWjAvdXnBrjXpho/wqU4bFRs1kdqwLcL9R3pGJsRMCszm8vGTRzkckgN+OoX99zJh+9i9EaKlY2KzfpYDfg77L+s8D3ehLuKv+M0I77vp2EO2TDn+Fo2yO69k91J8ILFbTevoViP3fjnKD5i2m6D9r3or5V08YRNNutbm4nZcL/+7bRFTfbjZqPsHuxePOo4T9JHKFaaP5/8wxrw93h+Et2TR63Y3G9mFmbC+UP9mhjGZbec2zC7F7snjzb+dPnYTJK3W/Lg15OfG52L1s+j7z7MwCxo/j1rgT1w97z7iYPuyaOMX+Qa//CnPkS+u8jnxtA3tHnXKBWb+03MgJv7UB9zq++x4/G9Atyb9zpezKU5NH8O+w+mgc8srnF/zV4rNveLO3YzGHuz5P1gPkcN+LJZ9+i9jK9ZPr5wjuCIiQ1hKg34bN69Fe1edoJhXtQxc6kfdTdV3c31ff2IYffqQccXSfoETp1PKmhgLxrwE8AGL9pBd4BhX8yxOua5bsLERW6n1IB7tXv2IOPE4mEEH+DpW2xWbNh71cCNc30W+Bm7kJ937lin3CB5b/jPWQN+UqZ7tnv3zuNNkj5LwbJhoYG9auAhSf+8c7XmfwHH6FjnvAETG/mdWgPu2e7dO40v43t/Nio269E04Ft8lnr0Z3B3cWyOcerNkfcnBx004PMB3MO3Hn4EIdfnUiwdiiVLjP8l6dytKzbvDzomx5aFM+sgF3PXgHu3e/hW41I+/bNZsWGPrgFfFvfjW1Vs7h9yTFzyR9Ode9PNFp+PAriXh8cH2fxH3/yziYf1TLNh37x4euBjwxWb9wcci2NCTzBAA+NrwL08NF7IDX/YrNiwJ9PA3WPc1Su0I+w22Xcoc0xs/jBAA+NrwDcIck/faPi7uv+gWNms0MCkGvChu8Gu5d2o8vczyTE4FjZ+GKCB6TTgnr7RuUU/xr3+2azYsCfXgJ/y9bv76cmjvqpj4BG/0238NF3YWwN+VoB7+9rhJ3P5sZyIBgZoYHoN+JPz09ZWbO7/9Nr59D+9jqhlcmANuLevfQKpr9O1U0AwMEAD02vAd/T65dw9fu3qvHbHgJZggAam14B7+9r7jPjRnCQKBmggjwauW9tic/+n146WYIAG8mjgyEeQ+wSBWylYNiw0kEoDrsmLc/f5s67Oa2Y/ybPx04TJhTXgmjzryYCX84SuVBs/BUvBWgP3LuryVWdtsbn/0Wv22tExDNBAHg34KZzu9YfG71GsbFZoIKUG/GSvasNrZuOHARrIpwH3+kPjJgqWDQsNpNTAbZK+4FDF5v0Hr9VrZvOHARrIpwH3+tPGs4pdrnPncr3XS3qfpD+W9A5+wWCNBt4p6e8lXbtsTpUuT7tL0g+dVrG5/+K1es1VNn9rwYbF2rBGrBX2Exis04B7jnuPe5D1455USe/u+QfjVyQ9XCAA39LwbyRdMbN7pR8kgj+MQsAnwTxP0h8WMr5/NQqZYd7Ea62wGXrjtgashbOeGDUMDl5l5gT8rAv3JPcm96js2nevd88/GHYxmRf9kKRbJP3AwYr5AwSGIfD1y8fUZj9hzZ9QHz1MyHt9Fa8x++F/59qPJnbuGRAYkoB7lHuVe1bmnuqef3L4+7rMrsVre6+kC1cL5ncIDEzADv7Nya+CcVOt0LC8xswGwGdBO9dzetriwOXAy+1IwL3KPSt7Xz15XtFzEh8G9feIv7ZjMvhxCGxKwO79jqTO/T5JL900kAnneY1ea8ZPP84tRxEnFEezt3bvynoujL/+cu/XSxJfr/sxSSeaiYZwpyXwZ5IeSNrA3jAtmo3e3WvM2PydU+eWAYGxCLh3uYdlrAd/Deber99IukA7lGeOlSneBwJLAk+QlPWS2GsKZMlrzLjhOafOLQMCYxJwD3Mvy1gT7v3624SL82GT14yZJd4LAqcQ8AMzMn5/d+Mpa8z6R68x22bnXK59CEpWmKxrFgTcyzJ+FeDef/La12wF67MouSxnFtovG8QHEzYyn8CWfXiN2fYT55IBgakIuJe5p2WrC9/3Qhkd+9VTZYr3hcCSwCsk3ZOsaP1JNvvIduTEOXQuGRCYkoB7WjYDcPKIYjZn4g3ku6fMFO8NgcWlYhclfJqda+O8xNnx2rIZAD/9zLlkQGBKAt+VsDbc+9OdoOBFffWUmeK9IbAkkO3kHa/niYmz47VlZJYYGUtrQsA9LduHbddqSsf++CaiIMzcBLIVrG+w86WJkXlt2W4CdPJTTmJmLK0HAfc0H43K9DWAj9alu/HJyUX10ARRJifwiWQF6+b6jMTMvLZsBsA5ZEAgA4FsX4/5xlgYgAzKYA0pCWQ0AJm/HvPaMAAppcyiEhDAAGzwiYojAAmUyhJOEsAAxISAAYjxYnYvAhgADEAvxRePFgMQSyAGIMaL2b0IYAAwAL0UXzxaDEAsgRiAGC9m9yKAAcAA9FJ88WgxALEEYgBivJjdiwAGAAPQS/HFo8UAxBKIAYjxYnYvAhgADEAvxRePFgMQSyAGIMaL2b0IYAAwAL0UXzxaDEAsgRiAGC9m9yKAAcAA9FJ88WgxALEEYgBivJjdiwAGAAPQS/HFo8UAxBKIAYjxYnYvAhgADEAvxRePFgMQSyAGIMaL2b0IYAAwAL0UXzxaDEAsgRiAGC9m9yKAAcAA9FJ88WgxALEEYgBivJjdiwAGAAPQS/HFo8UAxBKIAYjxYnYvAhgADEAvxRePFgMQSyAGIMaL2b0IYAAwAL0UXzxaDEAsgRiAGC9m9yKAAcAA9FJ88WgxALEEYgBivJjdiwAGAAPQS/HFo8UAxBKIAYjxYnYvAhgADEAvxRePFgMQSyAGIMaL2b0IYAAwAL0UXzxaDEAsgRiAGC9m9yKAAcAA9FJ88WgxALEEYgBivJjdiwAGAAPQS/HFo8UAxBKIAYjxYnYvAhgADEAvxRePFgMQSyAGIMaL2b0IYAAwAL0UXzxaDEAsgRiAGC9m9yKAAcAA9FJ88WgxALEEYgBivJjdiwAGAAPQS/HFo8UAxBKIAYjxYnYvAhgADEAvxRePFgMQSyAGIMaL2b0IYAAwAL0UXzxaDEAsgRiAGC9m9yKAAcAA9FJ88WgxALEEYgBivJjdiwAGAAPQS/HFo8UAxBKIAYjxYnYvAhgADEAvxRePFgMQSyAGIMaL2b0IYAAwAL0UXzxaDEAsgRiAGC9m9yKAAcAA9FJ88WgxALEEYgBivJjdiwAGAAPQS/HFo8UAxBKIAYjxYnYvAhgADEAvxRePFgMQSyAGIMaL2b0IYAAwAL0UXzxaDEAsgRiAGC9m9yKAAcAA9FJ88WgxALEEYgBivJjdiwAGAAPQS/HFo8UAxBKIAYjxYnYvAhgADEAvxRePFgMQSyAGIMaL2b0IYAAwAL0UXzxaDEAsgRiAGC9m9yKAAcAA9FJ88WgxALEEYgBivJjdiwAGAAPQS/HFo8UAxBKIAYjxYnYvAhgADEAvxRePFgMQSyAGIMaL2b0IYAAwAL0UXzxaDEAsgRiAGC9m9yKAAcAA9FJ88WgxALEEYgBivJjdiwAGAAPQS/HFo8UAxBKIAYjxYnYvAhgADEAvxRePFgMQSyAGIMaL2b0IYAAwAL0UXzxaDEAsgRiAGC9m9yKAAcAA9FJ88WgxALEEYgBivJjdiwAGAAPQS/HFo8UAxBKIAYjxYnYvAhgADEAvxRePFgMQSyAGIMaL2b0IYAAwAL0UXzxaDEAsgRiAGC9m9yKAAcAA9FJ88WgxALEEYgBivJjdiwAGAAPQS/HFo8UAxBKIAYjxYnYvAhgADEAvxRePFgMQSyAGIMaL2b0IYAAwAL0UXzxaDEAsgRiAGC9m9yKAAcAA9FJ88WgxALEEYgBivJjdiwAGAAPQS/HFo8UAxBKIAYjxYnYvAhgADEAvxRePFgMQSyAGIMaL2b0IYAAwAL0UXzxaDEAsgRiAGC9m9yKAAcAA9FJ88WgxALEEYgBivJjdiwAGAAPQS/HFo8UAxBKIAYjxYnYvAhgADEAvxRePFgMQSyAGIMaL2b0IYAAwAL0UXzxaDEAsgRiAGC9m9yKAAcAA9FJ88WgxALEEYgBivJjdiwAGAAPQS/HFo8UAxBKIAYjxYnYvAhgADEAvxRePFgMQSyAGIMaL2b0IYAAwAL0UXzxaDEAsgRiAGC9m9yKAAcAA9FJ88WgxALEEYgBivJjdiwAGAAPQS/HFo8UAxBKIAYjxYnYvAhgADEAvxRePFgMQSyAGIMaL2b0IYAAwAL0UXzxaDEAsgRiAGC9m9yKAAcAA9FJ88WgxALEEYgBivJjdiwAGAAPQS/HFo8UAxBKIAYjxYnYvAhgADEAvxRePFgMQSyAGIMaL2b0IYAAwAL0UXzxaDEAsgRiAGC9m9yKAAcAA9FJ88WgxALEEYgBivJjdiwAGAAPQS/HFo8UAxBKIAYjxYnYvAhgADEAvxRePFgMQSyAGIMaL2b0IYAAwAL0UXzxaDEAsgRiAGC9m9yKAAcAA9FJ88WgxALEEYgBivJjdiwAGAAPQS/HFo8UAxBKIAYjxYnYvAhgADEAvxRePFgMQSyAGIMaL2b0IYAAwAL0UXzxaDEAsgRiAGC9m9yKAAcAA9FJ88WgxALEEYgBivJjdiwAGAAPQS/HFo8UAxBKIAYjxYnYvAhgADEAvxRePFgMQSyAGIMaL2b0IYAAwAL0UXzxaDEAsgRiAGC9m9yKAAcAA9FJ88WgxALEEYgBivJjdiwAGAAPQS/HFo8UAxBKIAYjxYnYvAhgADEAvxRePFgMQSyAGIMaL2b0IYAAwAL0UXzxaDEAsgRiAGC9m9yKAAcAA9FJ88WgxALEEYgBivJjdiwAGAAPQS/HFo8UAxBKIAYjxYnYvAhgADEAvxRePFgMQSyAGIMaL2b0IYAAwAL0UXzxaDEAsgRiAGC9m9yKAAcAA9FJ88WgxALEEYgBivJjdiwAGAAPQS/HFo8UAxBKIAYjxYnYvAhgADEAvxRePFgMQSyAGIMaL2b0IYAAwAL0UXzxaDEAsgRiAGC9m9yKAAcAA9FJ88WgxALEEYgBivJjdiwAGAAPQS/HFo8UAxBKIAYjxYnYvAhgADEAvxRePFgMQSyAGIMaL2b0IYAAwAL0UXzxaDEAsgRiAGC9m9yKAAcAA9FJ88WgxALEEYgBivJjdiwAGAAPQS/HFo8UAxBKIAYjxYnYvAhgADEAvxRePFgMQSyAGIMaL2b0IYAAwAL0UXzxaDEAsgRiAGC9m9yKAAcAA9FJ88WgxALEEYgBivJjdiwAGAAPQS/HFo8UAxBKIAYjxYnYvAhgADEAvxRePFgMQSyAGIMaL2b0IYAAwAL0UXzxaDEAsgRiAGC9m9yKAAcAA9FJ88WgxALEEYgBivJjdiwAGAAPQS/HFo8UAxBKIAYjxYnYvAhgADEAvxRePFgMQSyAGIMaL2b0IYAAwAL0UXzxaDEAsgRiAGC9m9yKAAcAA9FJ88WgxALEEYgBivJjdiwAGAAPQS/HFo8UAxBKIAYjxYnYvAhgADEAvxRePFgMQSyAGIMaL2b0IYAAwAL0UXzxaDEAsgRiAGC9m9yKAAcAA9FJ88WgxALEEYgBivJjdiwAGAAPQS/HFo8UAxBKIAYjxYnYvAhgADEAvxRePFgMQSyAGIMaL2b0IYAAwAL0UXzxaDEAsgRiAGC9m9yKAAcAA9FJ88WgxALEEYgBivJjdiwAGAAPQS/HFo8UAxBKIAYjxYnYvAhgADEAvxRePFgMQSyAGIMaL2b0IYAAwAL0UXzxaDEAsgRiAGC9m9yKAAcAA9FJ88WgxALEEYgBivJjdiwAGAAPQS/HFo8UAxBKIAYjxYnYvAhgADEAvxRePFgMQSyAGIMaL2b0IYAAwAL0UXzxaDEAsgRiAGC9m9yKAAcAA9FJ88WgxALEEYgBivJjdiwAGAAPQS/HFo8UAxBKIAYjxYnYvAhgADEAvxRePFgMQSyAGIMaL2b0IYAAwAL0UXzxaDEAsgRiAGC9m9yKAAdjAANwu6TG9dEG0SQl8cgO9fm7EObdJ+oqkrLwsr81rHJPJce/lHDIgMDUB9zT3tuP0Oub/32Eo2RZ1i6SnTZ0t3h8CCZuZm+sXJ86M15bNAHg9DAhMTcA9zb1tzAZ/3Hu59+vWZIvyer5h6mzx/u0JPC6hOf6UpAsSZ8Zr8xqP23jG/H9vcs4lAwJTEnBPy9hrdVOygn1A0i9MmSneGwKSXigp43d25yTOjtfmw4pjNvjj3ss5dC4ZEJiSgHuae9txeh3z/9379fFkizKAj02ZKd4bApLembAu/Ok6+8h2BMD7iXPJgMCUBNzTxmzum7yXe78+kHBh3kSeO2W2eO/WBC5OePjfBe1DiNlHtsOc5uavAZxTBgSmIOBeltEYu/fr6oQGwEV7g6THTpEt3rM9gfdJeihhXfxLgcx4jZt8+hhzjnPpnDIgMDYB9zD3sjH1vul7uffrVUk3u3skvXnsbPF+7Qm8POH32KuCfluB7HiNq/Vm+t3nJji3DAiMScA9zL0sUy14LTbF7v16QeINz4dNLh8zW7xXawJPTXgZ22rjeHhRpz9TIDteo9e6Wnem331JoHPMgMAYBNy7Mh76d03aELv365Kk33euNg5/p3jlGNniPVoTuFTSf0p6JGnzcsF+e4EMeY3ZrgRY7SXOrXPsXDMgsE8C7lkZz4dZ1YLPi3Hvly/dyepSVov1pTzvkvT4fWaM125J4ISk1xeoAX96vbBAhrzGbDcDWu0jq9+93znnzj0DAkMScI9yr8p2CfFK+6vfXQMHlxT/SdJPPavF+vf7pZP3LHixpHOHzBiv1ZbAZZKuk3R3Af1XujQ24yVPp+4l/rNz7txbAwwI7ErAPcm9ydfWu1edqbdsf3fPPxhXSPp0gUUbog8v2r04gFdK+h5J37S8e6DvtsQvGJxNA9+4uOT1RcsTwa5aFmr2I1+rTePBxUk7rz6o1vx/8Fq95tX6M/9uDXjTtiZ8kqA1Yq2cTUP8G1xWGnDPce9xD3Ivso6yfvV1Zv2517vnH4zzChwCPTMI/90nGzkYH3LkFwzWacDfx91ZqDGdqnev/asOqjX/H7zWzN9/nsr21D/btFgjXvs6LfF/8LEG3HuynvB6qq7P/LPNinv+aePvijj2M4Ph7zU+aZGn7fPkxxJXG9kepYz+ttcf7ObFzr3+0Hhpke9CEeO8xEg+1+fTZ66/8VC15v8HrznrFRVobr3m4DNfPj73xb3+0HhC8ssBEeV8RUluj86tDzX6e8dqw2v22sktDNBAHg348j/3+rOOD1GwbFhoIJUG/H30weU6Z63anP/oNVc8D4BmladZkYvhc+Eef+TwXbwqXMKAMIYXBkxzMn3HkdWa/z+8dnQFAzSQQwPu7WvvJnoRh+3YsNi002jAZ+s+P3+fP3KFXrtjoAHAAA1MrwF/Jecev3a8peilUghseoGRg2FzUOHpf2s3k8W10hmfDohOh9UpPPPz9CWu7u3HjidxFIBPLHxqm1wD/uTs54hXH1mfhU7Tyt+0yNFwOfKnf/f2jcbrJN1LE5i8CVAAwxVAJZa+fO6vN6rUGpMcC5cE9tRypbqb61rdy93TNx7nS7oZA4ABQAOTaMAPEvnKjas1/0THkv3hKHPd/IkL4+Ve7p4eGr7H8V00gEkaAEXbt2gfkvTWUKXWmOyYHBvahgEaGE8D7uHu5eHxKEk3ULBsWGhgVA34k/JTwtWa/wccE0cBxtv4abKwtgbcw93LtxrfW+gJRwgewVfXwH3L59RvVawFfuj1khxj9TyxfnJYQQN+OqF7+E7jIxQsGxYaGEUDPlP3gp2qNfcPOzZuD0zzrNA857BG9+6dx5dTtKNs/nMQHDFsv7n7MbTfuXO15n8Bx+hY0QoM0MD+NGCj7d49yHgB39+xYbFp700Dn5H0c4NUao0XcayOmQYAAzQwvAZ8ro179qDjZ3HubFhs2oNr4B5Jle/3v+0m45gdOw0ABmhgOA346Jp79V7G2yX5ecIkDAZoYHcN+LK4Dy9u0vHovVRr7hd1zI6dSwN31xG1CENrwL3ZPXpvw0Xre3tTtAiOTWd3DfxP5Pace6vq6V7YtyY1A7QEAzSwmwbck92b9/5h4kKKlg2LTXtnDfhe/8+arvemeWcz4ImBu23+NE/42Ui7N48yni3pdprAzk2Awu1ZuL4+9/tGqdQab2IWZkI9wAANxDXgXuyePOrw5Txc0xtPFgLvzcxn6P70qJVa483MhDsF9q4N9sZ4/t2DJ7t8+JnLWw0+gHvn0wsaOFYDt0r6thr9eJJVmo0Z0QhggAbWa8A917f5dQ+edHyhpPcvLj34LIXLxoUGzqqB+yVdL+npk1ZqjTc3I7MyM5oADNDAYQ2417rnuvemGH7YwFV8j8eGxaZ9SAO+4c01kj4/RaXWWIRZmRk3Czq8+dMQezPxuTLutVs/4GefW8BP8T3eoQZAwfYtWBfrb0s6d59FN9PXNjOz4+TAvvXD3nl67n2OjHts6vG85fd4j/BpEDPQWAO+tO1HU1dqjcWZIZcJnt4IaIy9eLiX+twY99YS45LFYt/L0QAMQEMD4E+sH5V0aYlKrbFIszRTjgb0anwYnf+/Msa91D213Hju4nrnf+UZAhiBBkbgruVZuTs/f7tclY+3YLP1mc9mTXOAwZw1YLPr3ukeWn5cSeGyYc1007538b3cLYt7Yrwy64k55XeP0wPwyU9mbeZmP+cmQGz98rv6IOGeOavhwvUJDP4ug8LtJ+y5bWYPLr/iep2k82dVqTWCMXOz94lRzsXc9EU8vXLqnuje6B6Z8gz/obYFF+5rlyf28J1eL5HPYVOzQ7du/6D5g3yG2g92fR0/UMi5cE74aoD9pNoeY936JFf3xFYfJPzUou+Q9EfLWwr7fsZcOUABZyxgf8p0kb57cTLa90v6vF27Fj8/OAHnxLlxjpwrbivMXpJxL3GPc6/zLXzd+9wD9/4Ev8GrbeAXPGd5ssMbJN24hMPthSngqQr44aUGfUjuaknPXzj0EwNrnpfbHwHnyjlz7pxDb7bO6VR64n17s3cvswbd29zjfGKfex7jCALPkPTq5aU/dvKG51/3UcRsYgNrwMXpT4xuFNbaxxd37ft1SZcdoU3+uR4B59I5dW6dY+faOedDRu/GvA9j5h616lfWmi9fdS9zT2NsSeDJki5fOKiXSfotSW9bbNB/vniwyj9I+pCkayVdxy8YrNHAv0v6sKR/Wjjw9ywK8u2L52e/aVGsPqPcnxafuqU2+bF6BJxr59y5twasBWvC2rBGrBX2Exis04B7jnuPe5B7kXuSe5N7lHuVexYDAhCAAAQgAAEIQAACEIAABCAAAQhAAAIQgAAEIAABCEAAAhCAAAQgAAEIQAACEIAABCAAAQhAAAIQgAAEIAABCEAAAhCAAAQgAAEIQAACEIAABCAAAQhAAAIQgAAEIAABCEAAAhCAAAQgAAEIQAACEIAABCAAAQhAAAIQgAAEIAABCEAAAhCAAAQgAAEIQAACEIAABCAAAQhAAAIQgAAEIAABCEAAAhCAAAQgAAEIQAACEIAABCAAAQhAAAIQgAAEIAABCEAAAhCAAAQgAAEIQAACEIAABCAAAQhAAAIQgAAEIAABCEAAAhCAAAQgAAEIQAACEIAABCAAAQhAAAIQgAAEIAABCEAAAhCAAAQgAAEIQAACEIAABCAAAQhAAAIQgAAEIAABCEAAAhCAAAQgAAEIQAACEIAABCAAAQhAAAIQgAAEIAABCEAAAhCAAAQgAAEIQAACEIAABCAAAQhAAAIQgAABjfsSAAAeW0lEQVQEIAABCEAAAhCAAAQgAAEIQAACEIAABCAAAQhAAAIQgAAEIAABCEAAAhCAAAQgAAEIQAACEIAABCAAgUMEnizpckkvk/Rbkt4m6c8l/YOkD0m6VtJ1/ILBGg38u6QPS/onSe+R9HZJb5L0SknPl/TUQ6rjH+ZKwLl2zp17a8BasCasDWvEWmE/gcE6DbjnuPe4B7kXuSe5N7lHuVe5ZzG2JPAMSa+W9FFJ/7so1NuWv+6T9Dl+wWBADTwg6VOSbl1q7eOSfn1R1JdtqV1+LB8B59I5dW69nzjXzrlzz34CgyE14B616lfWmnuYe5l7GuMIAucsHPhzJb1h4aBuXAKkOCnMIQsz8loPLzXoRnH18tPiiSO0yz/nI+Bc+RO+c+ccekN2TiMaYC68htKAe5k16N7mHude557Xejxa0ndI+qMlnNslPUKRskkl1ICdvD8xvnvh6L9f0ue1rtycwTsnzo1z5Fw5Z0Nt4LwOLIfSgHuce50NgXufe6B7YZtxvqTXLov0DoqUTaqYBu6SZN3+gaQntanavIE6B86Fc+LcDLVR8zqwHEMD1q0Nq3uie+Nsx6Mk/dTykNy9FCobVXENPLj8lPm6uRdu0h3Jm6XZ+5O+czHGZs17wHlfGnBP9NdV7pHulbMaV0q6AYfOJjXDjdqFe8vikJ7PKJ9d4SbchczYrM2cDxI05H015Kle10ex3CvdM8sPn+zwr5LunOHGP5VAeN+cm96qcL+3fNXmDcBs+SCRU//sS8PmxV8NuHe6h5Ybl0h6Lyfi8Im/ofFz4frSn0vLVW3eBZulmZotjQYGnTTgr7jcS91TS4znLb/L4Ix+CrVToZ4Zq0/s+dESFZt7kWZolmfy5e8w6aIB91KfH+Demnr4BAYuv6EwuxTmcXH6E+tvSzo3ddXmXJyZmR2f+tlPjquzLv/v3uoem274xJyrKFY+pfBJ7ZAGPiPpmsWd6D4/XdXmXZBZmZnZddnciZNcb6IBG2L32jQnHH+hpPdL+izFymaFBs6qgfslXS/p6Xl7bpqVmZFZmdkmGyJz4NRNA+617rnuvZOOZy7PyuW2vRRhtyLcJl5/j/dtk1Zs7jc3GzPahi0/A7dOGnDP9RUx7sGTjO9c3s6wE3RiZZPZVQP+Hu+nJ6nY3G9qJpw/RH3tWl/dft63FHYvHnU8e3k/426wiZcNaggN+Hu87xu1YnO/mVlwsh+1NURtdXwNP1vAPXmUcaGk/+EwHYcp0cBOGvClbc8apWJzv4kZcJkfzb9j4x4yZvdk9+a9Dj+16F8Wzzd+iM1/p81/yMTzWnU3Txdt5wcKOXY+TNTVL3tPnty5J7s37/XJgm+XdDfNn+aPBgbRgIv2w/su2r1+JNj+xb1ROXY+TORpIjT02rlwb3aP3sv4We7pP8imT5HVLrKh83ePpHfspWJzv6hjduxD8+T1YNpZA37ujnv1oOMFnKHLRsVmvTcN+IY3PzdoxeZ+McfKTX5o1J0b9T5j99U07tmDjC/ncr+9bfz7FAGvXWuDtXMf/XKeQXaI2Is4Rp4OWkub7CX18uXLA927dx4f4ZMfBgANjKIBF+0FO1ds3hdwbI6RhgIDNLB/Dbh37zT8/G2uz91/oigGGFsD90l6/U4Vm/uHHZtjRO8wQAP714B7t3v4VsMPG/CtBkkUDNDAeBrw93dP2apic/+QY+JOf+PpiJqFtTXgHr7Vg4NeKekuDAAGCA2MqgFfFvfW3L18q9U5Ji75oylhTMbVgHu4e3lonC/pZjb+UTd+CmPcwsjM25+UvzJUsbknOxY+/aPvzDU357W5l7unbzxeJ+leDAAGAA1MooFHJP31xtWaf6JjcUxz3mSJjfxm1YB7uXv6RsO35+RMXcScVcxd1uX74z93o4rNPckxcK9/9pMudZs1Tvf0jW47/hZJD+LW+bSCBibXgO/tXX04hqybIusiN1004J7u3r52XMSnfzYrNuw0GvAn5+evrdjc/+m18+mfJtulyWaP00cB3OOPHD8j6X4aQJoGkF1QrG//m3vl5wR47WgEBmgghwbc293jjxwfomDZsNBAKg3cKumcIys27394zV47mz8M0EAeDbjHn3U8QdLtFCwbFhpIpQEftvuGs1Zs7n/0mjmZOM/GTxMmF9aAe7x7/aHxUkl+njBCgQEayKMBXz73xkPVmv8fvGYu/cujI2qaXFgD7vHu9YfG39H8MT9oIKUGPnGoWvP/g9dM04EBGsinAff608Z5Rc/WfVjSp5eHGn24kV8wOEoD/j7aj6GteImr1/5Vp1Vs7r94rRW//7c2rBGv/Sgd8e+wWWnAvcc9qJrJ8ZU57vkH44plI60QiJ9w5AD+ZFGkvsfx90j6puX3pP7ekV8wOJsGvlHSiyS9XNJVkm4qZHrdmF59UK35/+C1VjFa3kusBWvC2rBGrJWzaYh/g8tKA+457j3uQe5F1lGVJ+fauLjnHwwHkL35+xIGF+qLJZ17sHL+AIHtCVwm6boi5758bPswR/9JrzX7fuLvQp17a4ABgV0JuCe5N7lHVbiU3j3/5PDlOnYvmQvWDxJ5l6THrxbN7xAYiMCJxYMy/Jz67DXgw44XDhTzPl/Ga/RaM+8nzrVz7twzIDAkAfco96rsD79yDZy8vPiS5Jf/+fu4K4fMEK8FgbMQuFTSfyY+c92HF7/9LOvO9k9eY9ZDob4qwTl2rhkQ2CcB96zM58H4ckD3fr0gccHapVy+zyzx2hA4hcBTE3969clGa+/idUocU/7Ra8x6YpSPTDjHDAiMQcC9K+uRRZt09369anGC0UMJD9nds7hv8ZvHyBLvAYFTCPhEsKyfYN92yjqz/tFrzHj43zl1bhkQGJOAe5h7WbaacM9379fVCRdnWDdIeuyYmeK9ILAk8L6kprjC0wEzPv3Pm51zyoDA2ATcw9zLshkAr8e9Xx9IuDgfNpnDs9DHFhvvNwyBi5OeF+PvFLOPjN97+vtO55QBgSkIuJdl/CrAvV8fT2gAKl3yNIWgeM/9E3hnwrrwJpJ9ZNzonEsGBKYkkPHSWPf+k9ctZjo88YCkX5gyU7w3BCS9MOGlPP4eO/OTAb22bOdP+HIs55IBgSkJuKe5t2Xqtb5nQbpLFXwI0XdbYkBgSgKPS/g1gD9dXzAllGPe22vLdgTAh/+dSwYEpiTgnpbt67GTXym6QDK5klskPW3KTPHeEFgSyHZDG6/nixNnx2vLyCwxMpbWhIB7mntbpl7r3p/ukJ0X9ZgmoiDM3AQ+maxg3Vy/IjEyry2bAXAOGRCYmoB7WrYP2/66Lp0B8Hd2DAhkIJDtkbZurl+dAcwRa/DashmAio9SPgIv/1ycQLbbA2MAiguK5e+XAAYgxhcDEOPF7F4EMAAbHFLlCECvosgcLQYglh0MQIwXs3sRwABgAHopvni0GIBYAjEAMV7M7kUAA4AB6KX44tFiAGIJxADEeDG7FwEMAAagl+KLR4sBiCUQAxDjxexeBDAAGIBeii8eLQYglkAMQIwXs3sRwABgAHopvni0GIBYAjEAMV7M7kUAA4AB6KX44tFiAGIJxADEeDG7FwEMAAagl+KLR4sBiCUQAxDjxexeBDAAGIBeii8eLQYglkAMQIwXs3sRwABgAHopvni0GIBYAjEAMV7M7kUAA4AB6KX44tFiAGIJxADEeDG7FwEMAAagl+KLR4sBiCUQAxDjxexeBDAAGIBeii8eLQYglkAMQIwXs3sRwABgAHopvni0GIBYAjEAMV7M7kUAA4AB6KX44tFiAGIJxADEeDG7FwEMAAagl+KLR4sBiCUQAxDjxexeBDAAGIBeii8eLQYglkAMQIwXs3sRwABgAHopvni0GIBYAjEAMV7M7kUAA4AB6KX44tFiAGIJxADEeDG7FwEMAAagl+KLR4sBiCUQAxDjxexeBDAAGIBeii8eLQYglkAMQIwXs3sRwABgAHopvni0GIBYAjEAMV7M7kUAA4AB6KX44tFiAGIJxADEeDG7FwEMAAagl+KLR4sBiCUQAxDjxexeBDAAGIBeii8eLQYglkAMQIwXs3sRwABgAHopvni0GIBYAjEAMV7M7kUAA4AB6KX44tFiAGIJxADEeDG7FwEMAAagl+KLR4sBiCUQAxDjxexeBDAAGIBeii8eLQYglkAMQIwXs3sRwABgAHopvni0GIBYAjEAMV7M7kUAA4AB6KX44tFiAGIJxADEeDG7FwEMAAagl+KLR4sBiCUQAxDjxexeBDAAGIBeii8eLQYglkAMQIwXs3sRwABgAHopvni0GIBYAjEAMV7M7kUAA4AB6KX44tFiAGIJxADEeDG7FwEMAAagl+KLR4sBiCUQAxDjxexeBDAAGIBeii8eLQYglkAMQIwXs3sRwABgAHopvni0GIBYAjEAMV7M7kUAA4AB6KX44tFiAGIJxADEeDG7FwEMAAagl+KLR4sBiCUQAxDjxexeBDAAGIBeii8eLQYglkAMQIwXs3sRwABgAHopvni0GIBYAjEAMV7M7kUAA4AB6KX44tFiAGIJxADEeDG7FwEMAAagl+KLR4sBiCUQAxDjxexeBDAAGIBeii8eLQYglkAMQIwXs3sRwABgAHopvni0GIBYAjEAMV7M7kUAA4AB6KX44tFiAGIJxADEeDG7FwEMAAagl+KLR4sBiCUQAxDjxexeBDAAGIBeii8eLQYglkAMQIwXs3sRwABgAHopvni0GIBYAjEAMV7M7kUAA4AB6KX44tFiAGIJxADEeDG7FwEMAAagl+KLR4sBiCUQAxDjxexeBDAAGIBeii8eLQYglkAMQIwXs3sRwABgAHopvni0GIBYAjEAMV7M7kUAA4AB6KX44tFiAGIJxADEeDG7FwEMAAagl+KLR4sBiCUQAxDjxexeBDAAGIBeii8eLQYglkAMQIwXs3sRwABgAHopvni0GIBYAjEAMV7M7kUAA4AB6KX44tFiAGIJxADEeDG7FwEMAAagl+KLR4sBiCUQAxDjxexeBDAAGIBeii8eLQYglkAMQIwXs3sRwABgAHopvni0GIBYAjEAMV7M7kUAA4AB6KX44tFiAGIJxADEeDG7FwEMAAagl+KLR4sBiCUQAxDjxexeBDAAGIBeii8eLQYglkAMQIwXs3sRwABgAHopvni0GIBYAjEAMV7M7kUAA4AB6KX44tFiAGIJxADEeDG7FwEMAAagl+KLR4sBiCUQAxDjxexeBDAAGIBeii8eLQYglkAMQIwXs3sRwABgAHopvni0GIBYAjEAMV7M7kUAA4AB6KX44tFiAGIJxADEeDG7FwEMAAagl+KLR4sBiCUQAxDjxexeBDAAGIBeii8eLQYglkAMQIwXs3sRwABgAHopvni0GIBYAjEAMV7M7kUAA4AB6KX44tFiAGIJxADEeDG7FwEMAAagl+KLR4sBiCUQAxDjxexeBDAAGIBeii8eLQYglkAMQIwXs3sRwABgAHopvni0GIBYAjEAMV7M7kUAA4AB6KX44tFiAGIJxADEeDG7FwEMAAagl+KLR4sBiCUQAxDjxexeBDAAGIBeii8eLQYglkAMQIwXs3sRwABgAHopvni0GIBYAjEAMV7M7kUAA4AB6KX44tFiAGIJxADEeDG7FwEMAAagl+KLR4sBiCUQAxDjxexeBDAAGIBeii8eLQYglkAMQIwXs3sRwABgAHopvni0GIBYAjEAMV7M7kUAA4AB6KX44tFiAGIJxADEeDG7FwEMAAagl+KLR4sBiCUQAxDjxexeBDAAGIBeii8eLQYglkAMQIwXs3sRwABgAHopvni0GIBYAjEAMV7M7kUAA4AB6KX44tFiAGIJxADEeDG7FwEMAAagl+KLR4sBiCUQAxDjxexeBDAAGIBeii8eLQYglkAMQIwXs3sRwABgAHopvni0GIBYAjEAMV7M7kUAA4AB6KX44tFiAGIJxADEeDG7FwEMAAagl+KLR4sBiCUQAxDjxexeBDAAGIBeii8eLQYglkAMQIwXs3sRwABgAHopvni0GIBYAjEAMV7M7kUAA4AB6KX44tFiAGIJxADEeDG7FwEMAAagl+KLR4sBiCUQAxDjxexeBDAAGIBeii8eLQYglkAMQIwXs3sRwABgAHopvni0GIBYAjEAMV7M7kUAA4AB6KX44tFiAGIJxADEeDG7FwEMAAagl+KLR4sBiCUQAxDjxexeBDAAGIBeii8eLQYglkAMQIwXs3sRwABgAHopvni0GIBYAjEAMV7M7kUAA4AB6KX44tFiAGIJxADEeDG7FwEMAAagl+KLR4sBiCUQAxDjxexeBDAAGIBeii8eLQYglkAMQIwXs3sRwABgAHopvni0GIBYAjEAMV7M7kUAA4AB6KX44tFiAGIJxADEeDG7FwEMAAagl+KLR4sBiCUQAxDjxexeBDAAGIBeii8eLQYglkAMQIwXs3sRwABgAHopvni0GIBYAjEAMV7M7kUAA4AB6KX44tFiAGIJxADEeDG7FwEMAAagl+KLR4sBiCUQAxDjxexeBDAAGIBeii8eLQYglkAMQIwXs3sRwABgAHopvni0GIBYAjEAMV7M7kUAA4AB6KX44tFiAGIJxADEeDG7FwEMAAagl+KLR4sBiCUQAxDjxexeBDAAGIBeii8eLQYglkAMQIwXs3sRwABgAHopvni0GIBYAjEAMV7M7kUAA4AB6KX44tFiAGIJxADEeDG7FwEMAAagl+KLR4sBiCUQAxDjxexeBDAAGIBeii8eLQYglkAMQIwXs3sRwABgAHopvni0GIBYAjEAMV7M7kUAA4AB6KX44tFiAGIJxADEeDG7FwEMAAagl+KLR4sBiCUQAxDjxexeBDAAGIBeii8eLQYglkAMQIwXs3sRwABgAHopvni0GIBYAjEAMV7M7kUAA4AB6KX44tFiAGIJxADEeDG7FwEMAAagl+KLR4sBiCUQAxDjxexeBDAAGIBeii8eLQYglkAMQIwXs3sRwABgAHopvni0GIBYAjEAMV7M7kUAA4AB6KX44tFmNADPSMzUa7ttgxr/3IhznEMGBDIQSGkAsi3qVkmPz5At1tCewC0jNqpNmqKb65cmzorXls0AOIcMCExNwD3NvW2TOh9rjnu/bk+2KBesDyUyIDA1gWy14fU8cWooa97fa8vIbM2S+S8IjELAPS3bBwrXarpF2ZV89ygp4U0gcDSBi5I69vOOXvLk/+O1ZTyi6FwyIDAlge9KWBsnj47dmOwIgA9/XD1lpnhvCCya/ysk3ZOsNk4eskuenWwGwDl0LhkQmJKAe9pYh/Y3fR/3fl2bcGF2JudOmS3euz2BDyasi08VyIrXuOkGNNY855IBgakIuJdlO/zv2nPv198mLNi7JL1mqmzxvu0JvCjh4ToX7EnHnjw7GY8o+qiEc8qAwBQE3Mvc08YyvJu+j3u/fiPhwhyAT1B45hTZ4j1bE3iCpJuS1sQ1BTLjNW66AY05zzl1bhkQGJOAe1i2E2NXdefer5dIujdp0X5M0okxs8V7tSfwZ5IeSFoPbyiQHa9xtcFk+t05dW4ZEBiLgHuXe1imOlitxT3fvV/PSexQfNjk18bKFu/TnsAPSLojacHeJ+mlBTLkNXqtq40m0+/OrXPMgMAYBNy7Mh76d036qIR7v74g6fedq43D39+9V9KFY2SM92hJ4LGS3iwp4wlsqzrwDXa+vkB2vMZsNwNaMfTvzrFz7ZwzILAPAu5V7lnZrog5tQ68Nvf+k+P6pI59teCHlmdR4t5XGeP3oQi4Yf1X4q/BVjXgpvrooYLe4+t4jZkNgHn68KdzXsFQ7TFVvPQeCLhH+Yx/96xV7Wb83T3/YPzK4qz7h5Mv2BDtWv5G0hU4+IPc8Yc4AV+W8zxJf5j4668zN42/ioc52U94rWeuP+PffRjUGrAWuOx4MrmUf2MfTXJPcm/K/Kl/VYPu9e75B+NZhTZCB3Hncr12Me+T9MeL2we/g18wWKOBd0r6++W1r/6EmvXM3FWRnvq7v0f8oYNqzf8HrzXrd5+ncl392VqwJnxdtDVirbCfwGCdBtxz3Hvcg6wf96SVnrL/7vW65582sl76lB0m66sj/Kq5cnM6+L7utKrN+RevNfvXAFW1wLrZb3bVgHv9ofF7hRzMrgD4eYqokgY+cKha8/+D11yJMWslX1004F5/aFye/CzoLskhTjaiUzXgE9Zedaha8/+D15z1/iKn8uXP1FsnDfgqGPf6Q8MnwWR7XnGnxBArG9HZNOCavPhQteb/B6+Z/QRNn03T/Nt0unBNHnnC67s4bMdhSzSQSgPX5e/1R67Qa2ezhwEayKMB9/gjhx+Y8WmKlk0LDaTQwIOSfvnIas3/H167Y6ABwAANTK8B9/a1D8V6jKRPUrBsWGgghQZ8uc7T8vf5I1fotTsGNn8YoIHpNeDe7h6/dvwYRwHYsNi0J9fA/ZJ+d22l1vhPx+BYaAAwQAPTacCf/t3bjx0+QeA/KFg2LDQwqQb8yfmLjq3W/BMcA0cBptv4abqwtwbc0488+e/MbeSFRW5piLgR9xw1cLekXzyzKAv/3bE4pjnmipjIa3YN+PbE7umh8UEKlg0LDUyigZtn9qwL3yvdMWXfKFkfOZqjBtzLw+NSDt2xYbFpj66Bz0j68XC15v8Bx+TY5rjBEhN5zaoBf/3mXr7VePfiUOQjFC2bFhoYTQN+TO3G39VtVdXT/JBjcmxZN0rWRW7mpgH3bvfwrceXcRSADYtNezQN3HHcdbpbV3KOH/Q1yI5xbhst8ZDTjBrwp3/38J3GmyR9lqJl00IDe9XAQ4sTdf55p0qt8cOO0bFm3DBZE3mZiwbcs927dx4nFp9K/GQv7uhFccylODLGcaOkJ+5crflfwDE61ow5YE3kZQ4acK92z3bvHmT4Wt5PULRsWmhgLxrwE7q+ZpBKrfEijtUxz2GzJQbymE0D7tWD30PERcsNPRB7NrFXX8+dkl5co28PukrH7Nir54/1k8NMGnCP3tuHCRetbyqQKWDWQj6qasCXxb1m0LZa68UcO5cGUr9V6zfbut2b9/5hwnf14omBFG028Vdbz72S1j6as1Yv33q1ZmAW1fLHeslZJg24J49299A/lXQPRcumhQa20oCvz/3IJk/m2rqt1vlBP53MLLjfCA01U0OttBb3Yvfk0cZ5y6LlKV8UbaVCybBWNzo/lvPJo1Vr/jcyCzPBBLCfZKjRSmtwD7aBdk8edVwg6RpJd/EpcKtPgZVExlqH2ZhdrNdKunjUSq3xZmZiNnyoGEZr1Oz8Obr3uge7F08yzllcbvBGzubFAGACj9WAi/UvJT1ukkqt8aZmY0Z8qJh/88Kg7JZjX0Hj3usePPn4EW7xeWwDQPC7Cb4yPxfrr05epXUWYFZcIti3XirX+hhr9+203XNTjedIuoXv8TACHA04TQO+NOcHU1VqjcWYGZccYwLGaKhV3sPnyLjHutemHBdJ+jdJ99EETmsCVQTGOofbcB+WdJOkr01ZqTUWZXZmaJZoEwadNeCe6t7qHpt6+Hs8P4KQewVQsF0L1t9hf1TSU1JXao3FmaFZcl4A+0nX/cS91D211PlDfvTnDRQun1wafXrzDW1uXfx6haRH1eivJVZplmZqttw0CCPQxQjY9LqHupeWHOcuDuH9xPJ7CwqXwp1r4frpW/6++rWSzi9ZqTUWbbZmbNY8nZT9ZK77iXulv+t373QPLT986OKXlk8Ao3Ap3LkUrk/K8Rm5b5H0pPJVWicAszZzs+fmQewnc9lP3Bv9lEz3ylKH+zfdOvws8KuWDp7CpXArF66bz3skPX1T8TNvcAJm7xw4F5W1xNp758+90Ee13BvdI2c/XLhvlXTb8hHDmIHeBVBlA3SjsUP/C0lfN/sqrROgc+GcODeYAfaSCvuJe54f3ese6F7Y8oOE72J0maTflPTfSxgP4Ob5NJNEA778zEV68/KQ87cuvoM+Uacvtlupc+Mc+esB58y54xJCDEEWQ+De5obvXuee596X4k5+WXYKu6CfX1724+LliYMU79jF63vR+2zz65d373t2luJgHWECzp3vKuhcOqc8Z4D9ZOz9xD3MvcyXsrq3tfykH67c5UlVP7z4/Xck/aOkG5fuyWdHupgN1bcLvVuSnZVPoOAXDNZpwMVozfhQsTVkLdmR+0l075f0+wudvWzxXdwl2wiWn0lNwDl1bp1j59o5d+5X+4k1YW1YI+s0xP/Bxxpwz3HvsWbci07dT9yr3LPcu9zDOEF4oK3B1wN/yeLZx3b2l0u6Ygn45YtDfj/JLxis0YAvqXmJpCslfcvyDn12434ePaMnAefeGvAdB795qQ1rxFphP4HBOg2457i5+xp99yL3JPemUvf/+D+GfHpSI1pR0AAAAABJRU5ErkJggg==;" parent="YhhQH7N-noh5OKzbA0su-1" vertex="1">
          <mxGeometry x="1019" y="182" width="18" height="18" as="geometry" />
        </mxCell>
        <mxCell id="YhhQH7N-noh5OKzbA0su-11" value="" style="shape=image;verticalLabelPosition=bottom;labelBackgroundColor=default;verticalAlign=top;aspect=fixed;imageAspect=0;image=data:image/png,iVBORw0KGgoAAAANSUhEUgAAAgAAAAIACAYAAAD0eNT6AAAAAXNSR0IArs4c6QAAIABJREFUeAHtnQncfdXY93/NI41UKilKmoSQHk3I1GNKISlzJanwSELkidKj1BOSDIkMefEaKhQiUwPNGZqUSmnUPL/v+dU5/87//M99n3P22cO19vquz+f+3Ofss4fr+l5rr+vaa691LYkCAQjkQGAtSXtI+rakczufb5J0n6T/1/3zZ2/r/7tc0sWSzpL0O0knS/qhpG9I+pykT0jaW9LOkraTtJWkDSStJGnBHKCiIwQgAAEIQCAiATvhHSWd3ufoew6/6v8PSrpO0gWSfiHpa92AYTdJL5P0VEnLRYSGTBCAAAQgAIGUCbxI0t8acPyTBha3d3skvivpk93ehOdJeryk+VI2ALJDAAIQgAAE6iSwqKTDE3D84wQK93ReLVwo6fgOwI92XzOsK2mBOoFyLQhAAAIQgEB0Au5S/31LnP9sAcJtnfEGv5X0GUlv7YxLeHrn9cLC0Y2DfBCAAAQgAIEqCCwj6bwMnP9MgcG9kv4k6UhJb+oMdnwKrxCqqGacEwIQgAAEIhFYSNKvM3b+MwUFN0v6SScQ2L87Q2GJSEZDFghAAAIQgMC0BDx4biYnyPZH2Hiqo1+RmNfWkpaaFjzHQwACEIAABJoisJGk+wkACgVA5uYpkgdI2oJxBE1VYa4LAQhAAAJFCPwG51/I+Q/rGfGUxBMk7SXpyUWMwTEQgAAEIACBOghsjvMvzfkPCwicBfFQSc+X5HEWFAhAAAIQgEAIAk7JO8xxsa18Lrd08xHswNiBEHUfISAAAQhkS2DxTh7+OwkAGgmA7pb0Y0lvIZ1xtvcfikMAAhBojMALcP6NOP/B3hXPLPAiSW/vZGB0LgYKBCAAAQiUSMDzt7eRdIikUyT9uW/VOue7/1XnSeyIzsp17p7NZYGZDxEAhAgA+gMCpy7+v536+drOVMPFSqz/nAoCEIBAVgSc791ztb8j6a4JnJ2ndv2oM9/bi+G0uXh1vX7nw+dYPG6VdKwk99TM3+aKiG4QgAAEyiLgFK4Hd1aFu6YEB+cpcs8oS7Bg5/lZCXwIGuoJGq6SdFBnSeQnBqtDiAMBCECgcQLOyLarpD9U4NT8jvZjLVxBzovh4MDTYvCgpF9I2pFXBI23OQgAAQg0TOBpkr4gyQlYqnZmJ0pqUy74X9bArGqb5Hx+Tys8StJ6Dd+DXB4CEIBAbQQW6T4B/a4BB+YFc9oSBHy/AX45O+yqdHevgAe2vppkQ7W1QVwIAhComcATuouwXN+w4/peSwZlfaphjlU5xJzPe7WkD0pavuZ7k8tBAAIQqITA07ujof0uPkrjvnclmtZ70p0C8Yxi17bI4VkvR0tav94qxdUgAAEITE/AU/jcpRl1oJozua09vZqNnuHxBABhAsoqAw+/HnippPkarW1cHAIQgMAIAn6//q7OO/5LE3BOPxihSwo//zEBzlU6x5zOfZ4k9/qwKFEKdyYyQiAjAo+StKekfybmkPx6IuWye2K8c3LYVel6uSTb3WtBUCAAAQg0RsBpdz3H/uZEHZGnYaVc3OPS9KDKqhwd5519zMy/JH2gkx7bwTcFAhCAQG0EHtO50kcleS5zyg31jZIWrI1aNRdyz0vKNkD26ex3Q3fmAIFANfcXZ4UABLoE7Pi9IE+blqF9TuLWdQDDWIDpnGgbghAHs14g6tGJ12fEhwAEghFYsrMgz/tb8MQ/rKH3E3TqZS1JXnxmmH5sy4uLAwFPc2U1wtTvauSHQMME/I55n87IfjcqbXUkqY8D6FWR53ds5emNbbUTek1mW48RcNDuzJsUCEAAAmMTWLg7ne/aDByKlw5uS9mGIIAAaOCevVjS9uQRaMstjh4QqJaA1y+/YKARafPT18+rxVn72TdLcDpmm+tXFN3OkJT6eJfabyYuCIFcCDxD0q8ycvy9htmZ1tpWVuykkf1uhrbs2ZT/w18XeOGh4ySt0rYKjz4QgEAxAit3lyW9P1OH8Y1i2JI4aitJp2VqV4KA4UGAudzRqRMfIZlQEvcwQkKgEgIeJbx/tzHIubH8ZCV0Y530ad3pmzm92sm5To+r+5WMD4h1oyINBOog8LJOXvHLeDJ8aMDYa+sAHugay0raRNJ2knbuZBJ8Z3e0uEeMOyA8qPv3+W7P0JckHd/9O1HS6d21Hv5N/WnNgMPfSNooUB1FFAhAoAICT+zc6D+m4Z7TcPudqF+BUIoR8GyRlSStJ2lzSZ6FsEs3M92nJX1f0jktzR8x7lN2Kvs9IOkrXXsWqw0cBQEIhCTg7n7n7Pc646k0SHXI6ZHRlHoILCPJiy85SHiPpCMkeQqmX0v4nXQd9uYaozm7Z8e9QvPXUy24CgQgUCWBF9PdP6Nz2bVK8Jx7IgKP66Q09qspv4o4tvOK4sJOattcB6ZGCFR+23nts85EFmRnCEAgDIHlJX2NJ6sZnb9X0WMBlTDVdaggzkT5LElvl/S/ndcMv0x45ckITn1SGZxZcj9JftVDgQAEEiGwgySnAp30hs9p/70SsSVizktgjU6v1k7dQYruKfBYjpzqbt26+jXNxvOagS0QgEAkAu5G9cCruhuI1K7ngWkLRTIcskxFYIXu6wPPYPCIdtZEKL8NcJDldTPoNZuqqnIwBKoh4Cldt+H8RwY/ZrRuNSbgrEEILC5pC0n/LelMSR7hnlqQGlXeKyS9NIidEQMC2RNwY+f0nlEbjEhyeVDZK7OvMfkBeGwnd8GOkpz18QbulVLaCrc5y+VXldAYAnEILNl50jmVBm2sBu0+SW+IYzokaYiAp7d53QvPNji5k7PA9SJSkJqSLF4tlN6Ahioyl82bgN9h4/zHa7xvlvSivKsL2s9A4DHdAYXOSXAPwcDEwZDHBnxK0iIz8GUzBCBQAYHP0liN1Vh5tb/HV8CfU7aPwNIEA2PdU8N6KTxTYIP2VQk0gkA8Au52G3YTsu0RLudLelU80yFRIgScudBTDd0zcC/321jtjTON7tlZU2K+RGyMmBBIjoDT+l5KgzS0QbqzOyByy+SsisCRCXgQ4W6SfkXOgaH33eCDh4MmM6NAAAIlE3Ce7sEbLvfvZ3WfPBiVXHJl43TzEHhSZ8tHJXkp3dzvu9n0v07Sf85Djw0QgEBhAgvw9D+n0b2mM/DoQElrF6bJgRAoTsCDcF8t6STyDMy5JwcDAg8QdArnRYtj5kgIQKBHYDOeOuSnfb+bJZNfr1bwv2kCXlLa0wr/zv05NBj4k6TVmzYS14dA6gQOybSBuaW7fCyrk6Veg9stv3vovKLhD+kVmCcQ8OJbW7Xb/GgHgWoJnJ5ZAPA3Se/ozDN2wiMKBFIi4AWLDpd0R2b37OBrgP7vfiXg9RqcjIkCAQhMQMBPF7k0Jl7QZbtOLnfrTIFAygS8LLdfD1xNIDCnV8CzBJxzgQIBCIxJwCv99UfTbfvslKzO1b7RmDzYDQIpEXCmPI9d8fLFbbt3i+jj3r31UjIgskKgSQJPaWnD4fSrx3bm76/ZJFyuDYGaCDhJzgu6CYaKOM42HeOVOV9TE3cuA4GkCTy1ZQGAk/b4HekqSVsF4SFQnMDGkn7asvt60gDF4wL+R9KCxTFyJATaT+CJLWkoHPUfLGmF9psMDSEwFoHnsrCXft55IHD6ZQoEIDCEwBKJpyF1V/9RklYcohubIAAByYHAL1sS6E/aE+D9L+ZVILcBBGYmcEWCjYMXUvmCpFVnVotfIACBPgIeI3BGgvd6Eac/eMwNejgQ6sPBRwhAwAS+mVCj8ICkr3f+nDudAgEITE7AgcAfE7rnB5150e93S3rd5Lg4AgLtJvDmRBoDd2M+vd2maIV2TrDk1SUpcQk4ac4bJXnti6IONcXj/ADxnrhmQTII1E/g0cGTAXlurxP4UOIReFYnPe2Hu6PO/SrJo697jsE5GPz+9QfdRpcFluLZz2OAvArhXX1269mvzf+PZoZAvMqIRM0R8A0R7Yb3e7s9WKCnuUoxw5X9dP8uSX8tUGecdtrdsGRjnAFuQ5s9lsZ5M/oDuGjtQdnyeKqkH34oEMiegN+pe2Bd2TdZkfO5m+7IzpKfy2ZvlXgAXltS+tnzJW0aT73sJdpC0jlB2oEibcekx5zLQOLs6zwAugQ+GeDG97K8TmRCiUXgUd2UypM2sLPt76dNJ21iCeZYtnbvzC6S/hWgPZit/pT1m19dOSMqBQJZE1hckp/MyrqxJjmPl/V8Gyt6hax/zrFwdoX14hRJDjAosQh4YZ0jMlmC+DpJG8bCjzQQqJ+AB2rdVGFjPxgU+CnQ8/np7q/f1uNc0ZkVPZBv0G5lfz+1s6TrouMIxD61E3iOpAtqqANl16lJz3dzZzCrdaVAIGsCzhx2ew03vEf3+50jJSYBO2S/kpm0IS26/7diYkCq7msaLz/sufRF7ZvCcW73nCeBAoGsCTxbkrvlq7hpPT3sIOaKh69fn63I/rPVqXeGp5K3gF5ds+1phR3kvCJvM6M9BB5Os3tayU7AT5S8a4tfu9wL1MSUsDskrRYfT9YSeunhnTu5HW4tuW2YLTCs+zevMbJt1lZGeQh0B+XtWsKIYGcc8yA/5n+nUa3ObLBx/2oaiLKX8nGSvtdgPak6KLhf0puytzIAINBZW9sZw/aUdN6EN7xzjrtb1+lhKWkQeNGENi67IfYrotXTQIWUXSfZ1t4A5yTxlEgKBCDQJeCZAnbqX5LkVwR/lnRpNzjw+0Fvf6skUr+mWWW+23AA4IBi/zTRZSv1E7ptQdnBYITz+VXYe7O1LIpDAALZEHBPTYSR3p4hQkmLwIKdNQU8UyBKRtGyg4f3pWUOpE2FgHOrby3p051pcZ4PfVVfI+zG+O+STpZ0oKTnsYhFKmZNUs6XBHj67zXcDAZMsgrJM4guCVSPevVp2v/uCfB4KAoESiGwhiRPtbplwpvFKTo/IWmlUqTgJBB4hMB+E9bFaRvV2Y5nFPYjdkntkxfZOSpQXZqtnk3ym4OAt6RmDOSNRcA3hx3/tF1lTlrhd6WLxFIPaRImcFygRvuDCXNE9IcJeBnvOjOLTuLMi+7r2QGvwcAQKEJgk04EeWXJjazz969TRBiOgcAAAb9qKtowln2cFwqipE/AMzrqzChZdj0cdj7nCXhx+qZBgzoJ7CjJFWdYhZp2278lefoWBQLTEPhdRfWzSP3+8jSKcGwoAu6l9JofRepB1GPuJJV5qDoWWhgnlPCc0iorswcMEpWGrgbhhftDxXV0kvp/THhaCDgpgZ0k2XFOUg8i7+vXsM6aSYHAjAReJsnJTeqoyL65nj6jJPwAgdkJEADMzodfpyfg9unymtrDOtpcD+KmzZ2+XrTyDI4O6454PQXHmfsoEJiUAAHApMTYvwiBx0r6RYuCgOtIfFakGrT7mPUaHAHrnAIUCExKgABgUmLsX5SA1wXxqqBNLDpVRc+AezVWLAqD49pFYBVJVzQY4XqqypPbhRRtaiBAAFADZC4xFwFPqbutwbayzGDgDHpf57Jtll+W6+bHL7NiFTmXc/JTIDAJAQKASWixb1kENqhgenSRNrOMY37MqqdlVYv0zuO0vlGmUnlt9aXSQ4jEDRIgAGgQfuaX9vLCf2pJT8DnM7dllurPJylSJjVHs6/P0hIoXZQAAUBRchxXBgEvRnVCS4IAL59OyYjAAQEr7rEZ8UfV6QkQAEzPkDNMR8CrCh4ZsC2d9PWA8768ajoUHJ0KgdcFHc16USoAkTMEAQKAEGZACEl+gq46edqkTn3S/T0FfGOs2W4Cm1WY4nfSCje4v2cDOKKmQGAcAgQA41Bin7oIeEXIuvOoDLah03736q1PqgsY16mXgJf0tYGnrSRVHs/c1HrrRMpXIwBI2XrtlH1TSTcGb2NHtd8XSlq6nebJVyuPsP9zAhXTQQoFAuMQIAAYhxL71E3A0wSvTaCtnS0Q+CnTA+uuNtVdb/5O/ucfJlIhH18dBs7cMgIEAC0zaIvUcWKzspdSn81hV/Hbx1tkj6xV+Vgizt+V2LkJKBAYhwABwDiU2KcpAqtJujihtncwiHDaY49roCRM4JVBR/wPVjZ/9yIVFAiMS4AAYFxS7NcUAY9pOi/hIOBWSes0BY/rTkfA3VBe/nGYs4247cTp1OXozAgQAGRm8ETVXVaS8+5HbHPHkekvkh6dKPtsxfagv78mVun2ydZaKF6EAAFAEWoc0wQBj6qPknZ9HKc/uM/3JTl7LCUBAjaUDTZoxOjfn5IAW0SMQ4AAII4tkGQ0gSUknZxgu9zzG+8drSJ7RCDw7gQr2W8igEOGpAgQACRlLoTtDnI+NcH22UHAfZK2xIqxCTw7cKa/XiQ57P82sbEiXUACBAABjYJIIwm4J+C0RIMAD9ReZaSG7NAIAQ82+XuCFcsNOe+XGqkySV+UACBp82Ut/DKSzkmwrfbDm++7hbO2XkDlU33vf6+kZwTkiUjxCRAAxLcREs5M4DGSnHZ3WI9o9G0Hz6wWvzRBwAM0oleaYfIxsKSJ2tKOaxIAtMOOOWuxsqRLE2y7vfLh83M2XCTdN5LkJ+lhDjbytmMiQUSW5AgQACRnMgQeQsDpz1N8dXuVpOWG6MOmGgl4QIkTNUR29MNkO0XSIjVy4lLtI0AA0D6b5qrRmpL+mWA7/r1cDRZF7y8kWGmcFWvJKACRI1kCBADJmg7BhxB4qqSbEmzP3zpEFzbVQOAVCVYWL46xQg1suET7CRAAtN/GuWm4maS7E2vXb5fktPOUGgk8NsE1p6+W9IQaGXGpdhMgAGi3fXPV7nUJLeDWe717FlMD66uunvL3k8SiRC9KtEF9iLhSBgQIADIwcqYq7pdY++5A4OOZ2qp2td+VWOVwCskX1U6JC7adAAFA2y2cr35+yPtKYu28pwaSKrjiOru6pNsSqxi7VcyE0+dJgAAgT7vnovVCkjxbqtfNnsL/KyR55UNKBQTml5TaQhKHVsCBU0LABAgAqAdtJ/BoSecmFgS454JSAYHdE6sIJ0paoAIOnBICJkAAQD3IgYCzBf4jsbb/JTkYpk4dU+v6P5u5/nVWjyyvRQCQpdmzVNrZXu9IKAi4UpJ7LyglEPCAkJ8lZPwbJa1Rgt6cAgKzESAAmI0Ov7WNwPYJ+QCPV/h82wzQlD67JmR4j/hnkYimakpe1yUAyMveaCsdlpAveFDSCzHadARWlHRzQkbfazp1ORoCYxMgABgbFTu2hMCCiQ0Ev1yS16uhFCTw7YSc/9cL6shhEChCgACgCDWOSZ2AU6l7Jb4UpgVaxgNSB96U/B5JmYqR/yRpsaZAcd0sCRAAZGl2lO5kgt1Y0j2J+Ae/FvZCR5QJCNiZXpqIgW+VtNYEurErBMogQABQBkXOkSqBlKaFnybJg9kpYxI4MBHn7x6KV4+pE7tBoEwCBABl0uRcKRL4ckJ+4m0pAm5C5nUl3ZuIYQ9vAhDXhACJgKgDEHjotatzrqTwqtjTw5fHZrMTcDfJrxIx6BmSFpldHX6FQGUE6AGoDC0nTojAkxJaH+aohLg2IqrXgk4hmvPURJL9NFJFuGiXAAEAVQECDxN4SyJ+wysGPgujDSfggX9/T8SQDlQoEGiSAAFAk/S5djQC30rEd5wpyQvbUQYI7J+IAVntacBwfG2EAAFAI9i5aFACXobXy/Gm0IP8pqAMGxNr1UQWe/DURBZ5aKyacOE+AgQAfTD4CIHO+LEtJbmbPXoQcC1+ZO76+p0EjOaEDs+ZW2y+QaAxAgQAjaHnwoEJHJSAL3GA4qnuFEmbJ2Kwj2AtCAQiQAAQyBiIEobAQpJOT8Cn3CVptTDUGhTk1ASM5cbWC1FQIBCFAAFAFEsgRzQCnhroDK3RXwUcFw1c3fL8RwJGcqT2lLrBcD0IjCBAADACED9nTWDnBHyLlwzOelrg0QkY6f1Z30YoH5UAAUBUyyBXBAJOKndKAv7F6wRkWdyl/q/gBnK2P7r+s6ye4ZUmAAhvIgRsmMATJN0e3Mf4NcXLG+bUyOW9RGLkdzR3S1qvETJcFAKjCRAAjGbEHhB4X3A/Yx94fo7JgZwMIXIAsC/3DgQCEyAACGwcRAtDYAFJZwX3NfaDO4QhVpMgBwQ2ynmSPJ2EAoGoBAgAoloGuaIR2CCBFWYvl7RwNHBVyvOZoAGAM0ltUqXinBsCJRAgACgBIqfIhoAT70TucbZs78jGGpK+HNQgn8/JCOiaLAECgGRNh+ANEPBic38L6nN6gck1kixnFiViD4BzNC+TBX2UTJ0AAUDqFkT+ugk466zn3vccbsT/e9YNpanrObVuNANs3xQMrguBCQkQAEwIjN0hICl67plsegFeFywAOJnbAwIJESAASMhYiBqGwLKSbgzmewYfhPcIQ6tCQdYIZASv9Mec/wqNzalLJ0AAUDpSTpgJgXcH8j2Dzt/fs+kFuCyIIQ7PpOKjZnsIEAC0x5ZoUi8BZ3e9IIjvGRYAeNu76kXSzNU+EcAI7g5arhn1uSoEChMgACiMjgMhoJcG8D0zOX9v/0cOuWi8bOP9DRtiV24GCCRIgAAgQaMhcigCJzbse2YLAPzb60PRqkiYbzRohHMkOVUkBQKpESAASM1iyBuNwNrBMwTaP3lVw1aX1STd0UAQ4J6HjVtNFuXaTIAAoM3WRbe6CBzWgO8Z9eTf//vz6gLR5HWc/KBf6To+H9KkwlwbAlMSIACYEiCHQ6Cb+O36BvzPuD7uhBys5G6O79ZohN9IWjQHsOjYWgIEAK01LYrVTGC3Gn3PuI6/t58zF65bM49GLuccyHbMPcWr+v9XScs3oiEXhUB5BAgAymPJmfIm4HFgf6nB9xT1aV/MxTxLSDqpQkOcKWmFXGCiZ6sJEAC02rwoVzOBHSv0O0Udf++4uyWtVDOPxi63kKT/qWDRhq9JWrIxrbgwBMolQABQLk/OljcB9wJcFDgIOCA382wh6cISDHKFpG1yg4e+rSdAANB6E6NgzQReU4K/6T21l/3/phwfYB2V7SDJXfeTAnU0t4ukhWuuRFwOAnUQIACogzLXyImAB6OfXcDXTOqbiu6/e07GGNR1HUn/JelHki4dyCB4bzd1on/bT9JTBw/mOwRaRoAAoGUGRZ0QBF4ROAC4WNL8ISgFEeJROXaLBGGPGM0SIABolj9Xby+B0wMHAS9sL3Y0gwAExiVAADAuKfaDwGQEXhI4APjeZKqwNwQg0EYCBABttCo6RSHwq6BBwH2SVo4CCTkgAIFmCBAANMOdq+ZB4AVBAwAPIPxoHiZASwhAYCYCBAAzkWE7BMoh8MegQcA1kpwvhwIBCGRKgAAgU8Ojdm0EPAW96JS9qo97eW0UuBAEIBCOAAFAOJMgUMsILCjJieSqduZFzs9gwJZVNtSBwCQECAAmocW+EChG4L1BAwAPBlyxmEocBQEIpE6AACB1CyJ/CgSca+bmoEHAu1MAiIwQgED5BAgAymfKGSEwjMDBQQOA84cJyzYIQKD9BAgA2m9jNIxBYBVJTjdf5F191cc8MwYipIAABOokQABQJ22ulTuBY4MGAIfnbhj0h0COBAgAcrQ6OjdFYP3OQnMPBgwCrpPk2QoUCEAgIwIEABkZG1VDEPhlwADArxheFIIOQkAAArURIACoDTUXgsBDBF4fNAD4CvaBAATyIkAAkJe90bZ5AotIuj5gEPBvSYs1jwcJIACBuggQANRFmutA4BEChwUMAPwaYLtHRGz20wKSntsRwSsWOV3hhZK8eMFN3bSKp0s6TtK7JD2lWVG5OgSSJUAAkKzpEDxhAvZZVU/tK3L+45tmupKkg7rOfhIFzpO0u6TFm1aA60MgIQIEAAkZC1FbReB3AYOAOyQt0QRlX/RASXdOCcXTGd4qaf4mlOCaEEiMAAFAYgZD3NYQePOUvm6SB+RJ9n1V3YSdhejSkmGcIsm9CRQIQGBmAgQAM7PhFwhUScAD7iKuD/D1KpUePPfrJN1dsvPvRTtXS3rq4AX5DgEIzCFAADAHBR8gUDuBIyvyfT0fWOT/rZ3X8IvWQeJNkh6oGIAjrA3rUIZrQCBBAgQACRoNkVtD4OkV+78iAYCP2bpqws465LWIiwo4yXHXSlq1aoU4PwQSJEAAkKDRELlVBM6pyQ9O4jOPqpKwV0WqOxGCR1yS67hKq3LuFAkQAKRoNWRuE4F9AwYAnnI/X1WQf9CQwu+pSiHOC4FECRAAJGo4xG4NgTWCLhDk1xOllxc05Pzd/eFUh8uVrhEnhEC6BAgA0rUdkreHwFkN+sWZXg3sVwXepldC+lgVSnFOCCRKgAAgUcMhdqsIvC9gAOBsu6WWCOkP/W6DsQClmpWTJUyAACBh4yF6awisFvA1gGforVAmYef1n6m7oc7tW5WpFOeCQMIECAASNh6it4rA74P4x35fvGOZhM8IouAhZSrFuSCQMAECgISNh+itIrBXEP/YHwAcWxbhpSXdH0TB08pSivNAIHECBACJGxDxW0PAqeurTozX79zH+fzPsqYDbhPE+VtpLylMgQAEJAIAagEE4hDww+k4jrnOfdYvA8/ngim2SBlKcQ4IJE6AACBxAyJ+qwjsEcxPOtB4bxmE/xpMsWXLUIpzQCBxAgQAiRsQ8VtFwEmB6ny6H+daP5mW8OMDKrXUtEpxPARaQIAAoAVGRIVWEbg4mL+8Q9LC0xB+SzCF7pE0/zQKcSwEWkKAAKAlhkSN1hD432D+0r0Ez5mG7leDKXTJNMpwLARaRIAAoEXGRJVWEHhJMH/pAOD905C9LJhCx0+jDMdCoEUECABaZExUaQWBxSTdGcxnnlCUrOc2jjPQoM59WBWwqDU5rm0ECADaZlH0aQMBD7yr0yeOupYX0lugCNjtgiliRZ9aRBGOgUALCRAAtNCoqJQ8gT0D+s1nFKF6WDBFrmcAYBEzckxLCRAAtNSwqJU0gbWC+U0/ODsombicGUyRb06sAQdAoL0ECADaa1s0S5uAB6uP6pqv8/esVCKaAAAgAElEQVSJfecSku4LpsTb0q4TSA+BUgkQAJSKk5NBoDQCnwnmOz2Yf6KyZTAFHC2tPpEG7AyBdhMgAGi3fdEuXQKvDug/V5wE5/uCKXDpJMKzLwQyIEAAkIGRUTFJAisE859+gH7FJCQ9377OdxSjrvWVSYRnXwhkQIAAIAMjo2KyBKKNA/jEJCT9xD3KKdf5O+//J7Ee++ZAgAAgByujY6oEjgnmQ38+LshlJD0YTPi1xxWe/SCQCQECgEwMjZpJEnh7MB96s6T5xiG5VTDBPf9/LMHHUY59INASAgQALTEkarSSwDrB/Kh77J8wDul9ggn+g3GEZh8IZEaAACAzg6NuUgT80HpDMF/6qnEIfieY0HuPIzT7QCAzAgQAmRkcdZMj8KNgvnT/cQj+LZjQm48jNPtAIDMCBACZGRx1kyMQrTf9h6MILirp/kABwAOSHjVKaH6HQIYECAAyNDoqJ0Vg00C+1GMA/jGK3tODCXzRKIH5HQKZEiAAyNTwqJ0MAT9Q3xPMpy49G70dgwn7tdmE5TcIZEyAACBj46N6MgTOC+ZTnzMbuYOCCbvXbMLyGwQyJkAAkLHxUT0ZAl8P5lPfOhu5HwcT9rmzCctvEMiYAAFAxsZH9WQIvD+YTz1kNnKXBxLWAwCXnE1YfoNAxgQIADI2PqonQ+AlgXyqBwKeNBO5JYKlAJ54DeOZFGM7BFpIgACghUZFpdYRWDlYAHDlTIQ3DCboyDmLMynCdghkQIAAIAMjo2IrCDidfZ2L5812La/z44f9ecq2gYS0AhMtXziPNmyAQLsJEAC0275o1x4CvwzmW9cfhjZa1qIdhgnJNghA4CECBABUBAikQeDwYAHA0DUBjg4mpF9JUCAAgeEECACGc2ErBKIReFsw3/q+YYAidVM4HbGzKFEgAIHhBAgAhnNhKwSiEXhWsADg88MAOU/wbIMH6vztkmECsg0CEJhDgABgDgo+QCA0gWgz7H4+SGsxSZ53X6eTn+1aPxkUkO8QgMBcBAgA5sLBFwiEJnBtIP/qfD9zlbUDCefA4LNzSccXCEBgkAABwCARvkMgLoFI9+u9khboR7VVsADg3f3C8RkCEJiHQKQG5Zh5pGMDBCDQT+CbwXysExTNKW8OJtzL5kjGBwhAYBgBAoBhVNgGgZgEnNdmttfedf+2cT+mDwcT7in9wvEZAhCYhwABwDxI2ACBsAR2DuZjX9NP6shAwjlVIVMA+63DZwjMS4AAYF4mbIFAVALRXrO/tx9UpGWAPVqSAgEIzE6AAGB2PvwKgUgE1gz0kO3XDYf1wzknkHB/7BeMzxCAwFACBABDsbARAiEJLBxsqv23+ylFWq2IVQD7LcNnCAwnQAAwnAtbIRCVQKRke6f2IHk+YKQkQOQA6FmG/xCYmQABwMxs+AUCEQmcFqin/aIeoBUCCeV3E/v2BOM/BCAwIwECgBnR8AMEQhL4WiBfe2OP0DqBhHIAsFNPMP5DAAIzEiAAmBENP0AgJIFDA/laz7bzuARtHkgoBwAvDGk6hIJALAIEALHsgTQQGEXgg8F87UPZALcNJtTTRlHkdwhAQAQAVAIIpEVgl2C+dkPj2zWYUKumZVOkhUAjBAgAGsHORSFQmEC0h+0trUm0NMBempgCAQjMToAAYHY+/AqBaAS2CPaw/SoDOiSQUHdEsxjyQCAoAQKAoIZBLAjMQGD9QL7W4+28CKC+EEioy2cAx2YIQGBuAgQAc/PgGwSiE1gpkK91APBuA4u0TjFpgKNXYeSLQoAAIIolkAMC4xHwtDtPv7PzjfC3v8WOtBDQL8fjyF4QyJ4AAUD2VQAACRL4dxDn7wDkcPNzTuAI0YhlYB2ABGs0IjdCgACgEexcFAJTEbgskL/9ojVxt3uUAOAbU6HlYAjkQ4AAIB9bo2l7CJwZyN/69b/+Gkigo9pjZzSBQKUECAAqxcvJIVAJgV8H8rfft4ZXBxLIUxIpEIDAaAIEAKMZsQcEohE4JZC//anh/DOQQB+NZi3kgUBQAgQAQQ2DWBCYhcAJgfytlyfWFYEE2nMWcPwEAQg8TGB+SRcGum+PwTAQgMBYBNztHmXM3VmWONKTxPZjIWQnCORLYD5JRwZqRNyYEQDkWx/RfDIC3wp07/ohQscFEujpk7FkbwhkRSCi8ycAyKoKouyUBI4N5G89AUDudo/QJXGXpEWmhMvhEGgrgajOnwCgrTUOvaogcHQQf+v79hIruG4QgU6qgjbnhEALCER2/gQALahgqFAbgc8G8be+b//e0/qiAEK9tScM/yEAgTkEojt/AoA5puIDBEYSODSAr/U9679/9KTdo2GhnB95yZ4w/IcABB4ikILzJwCgskJgfAIHNexre87f/50C4KHyKEnXNSjYx3qC8B8CEHiIQCrOnwCACguB8Ql4Bb5+J9zk53/1i71LQ4I5E+FS/YLwGQKZE0jJ+bsBI4V35hUW9ccmEDYAcHKRXzQQBLxybHTsCIH2E/B9+KUG7sNpnkQ+1X6zoCEESiEQ8hVAT7OVa14bwAMiKBCAwMMEUnvy7wUNu2NACEBgLAKRBgFeNUziZ0i6pYYnkO9KWmCYAGyDQIYEUnzy7wUAz8/QXqgMgSIEQk4DHFRkI0nXVxgEeB1ikv4MUud7rgRSffJ3AHCvpCVyNRx6Q2BCApESAV06m+yrSTqz5CDgPkkflOQGjwIBCEgpP/k7APgZRoQABMYmECkV8N9GSb2gpA9Iuq2EQMDBxLNGXZDfIZARgdSdvwOAN2ZkL1SFwLQEwi0GNI5CK0g6WNINBQIBrza4rR5+0hnnWuwDgRwIpNzt33v370Qii+VgLHSEQEkEwi0HPIlefm+/taTPSDpD0h1DAoIrO0/6J0raW9KTJzk5+0IgEwJtePJ3EPCuTOyFmhAoi8AJQ3xmL6Cu+/+vy1DKKXzXkPQYngbKwMk5Wk6gLc7/XEl+RUiBAATGJ3BKoADgp+OLzZ4QgMC0BNrQ7e+nFC/dveG0MDgeAhkS8FN33U/6M13PryMoEIBADQTa8uT/oKQdauDFJSDQRgJlz6ybybmPs93T8SkQgEDFBNri/N2ovKdiVpweAm0mcFmgHgCnHKdAAAIVEmhLt7+d/74VcuLUEMiBQBlT6sd5uh9nn0NyAI6OEGiKAM6/KfJcFwLxCHgW3TiOua599ouHCIkg0A4COP922BEtIFAWgccFCwD2KEsxzgMBCDxCAOf/CAs+QQACDxPYIFgAsBOGgQAEyiWA8y+XJ2eDQFsIPC9YAPDytoBFDwhEIIDzj2AFZIBATALbBQsANouJCakgkB4BnH96NkNiCNRJ4B3BAoB161Sea0GgrQRw/m21LHpBoDwCHwoWADh9PwUCEJiCAM5/CngcCoGMCHw6UABwv6QFMmKPqhAonQDOv3SknBACrSXw9UABwHWtpYxiEKiBAM6/BshcAgItInBaoADgvBZxRRUI1EoA518rbi4GgVYQuCpQAOBliSkQgMCEBHD+EwJjdwhAQE4D/ECgAOA4bAIBCExGAOc/GS/2hgAEHiawZiDn77UGDsIwEIDA+ARw/uOzYk8IQGBuAi8MFgC8c27x+AYBCMxEAOc/Exm2QwAC4xDYJVgAQBrgcazGPtkTwPlnXwUAAIGpCRwYLAB42tQadU+wkCQvcvAxST+W9BdJN0m6VdKNki6U9H1J+0p6tiQ3qBQIpEAA55+ClZARAvEJfCtYALD8tMhWkXSIJCcU8KCCcf8uk/QBSUtPKwDHQ6BCAjj/CuFyaghkRuAPE/jIcX1p0f3unOZBfMmu479nSoVukbSXpAUzqwioG58Azj++jZAQAikRmPRBuahzH+c498oXKu7Cv3xKxz8ooCOj1QtJw0EQKJ8Azr98ppwRAjkT8EPzgyX7zUE/Osn3HxYxxus7XffTPvXPJOQNkp5TRCiOgUCJBHD+JcLkVBCAwEMENg7k/O2DvSjRROWNNWQxukPSf0wkFTtDoDwCOP/yWHImCEDgEQI7BwsAdn9EtNGfnMDgvpoU8OyBtUaLxB4QKJUAzr9UnJwMAhDoI3BETf5zph72we0v6ZNt1o8rSfpXzcKf00lTuOisUvEjBMojgPMvjyVnggAE5iVwas0+dNDhD35/8rwiDt/yfxoS/CPDxWErBEolgPMvFScngwAEhhDwGLdBJ9zU93slOXfPyLJFg0LfJWnlkRKyAwSKE8D5F2fHkRCAwHgEVm3Qjw4LMsaeAnhyw4JPPFJxPHuwFwQeykZ5ZMP1e9jNWWSbM2xSIACBmAS2DtbOuFd/ZHlSgHmLThS02EhJ2QECkxHgyX8yXuwNAQgUJ7BPsADAKftHFr+DL/I0UvYxrxopKTtAYHwCOP/xWbEnBCAwPYHjgvjSnm/efhyVTgsi9GfHEZZ9IDAGAZz/GJDYBQIQKJXA+UF8aS8A2HCUds7Nf3cQoccesDBKKX7PmgDOP2vzozwEGiHgV9gedd9zvk3/dz6fkVPs/f6/aUF713+AVQMbqbhtumibnP8H22QYdIFAywlsFsiX2qeeNw7vTYMJ7UyEFAgUIYDzL0KNYyAAgTIIeIZO72E2wv+vjaPUi4MJ/eFxhGYfCAwQwPkPAOErBCBQK4ETgvnS/xpH++cFE9oQKRCYhADOfxJa7AsBCJRNwG3QjcF86QvGUfLpwYR2GkXDpEBgHAI4/3EosQ8EIFAlgfWC+VG/glh+HIUfHVBwVggcx3Lsg/OnDkAAAhEIRFsC+MpJoFwRLAh4+yTCs2+2BJw+OsJgm2llYLR/tlUYxVtC4NhgbdF3JuH67WDCf30S4dk3SwLvDlZniwYBe2dpPZSGQLsIXBasPRprAGDPBO8JJvw1PcH4D4EhBDaSdE+wOlskAMD5DzEumyCQGIEVA7ZFzkkwdtkkoAJrji09O+ZEYH5Jpwesr5MGAHT751Rr0bXNBLYL1h7dL2nJSYA7XWC0JyrGAUxiwXz23THYzTap4/f+PPnnU1/RtP0EvIZNkXagqmPOLYL8jGBKMA6giBXbf0y0xTYmvYlx/u2vo2iYF4FLg/nOo4rg/99gSvyTfABFzNjqYzYOVkcndf50+7e6eqJchgSeHLBNekMRO7w+oCJOUkSBQI/AoQHr6LhBAE/+PSvyHwLtIbBXwDZptSJ4VwmoiBdXoECgR+CcgHV0nACAJ/+eBfkPgXYR+GmwNukf0+C9OJgyv55GGY5tFYFFJHl06zgON9I+OP9WVUOUgcAcAot1BvTeGaxNmmrs3NHBlLlP0tJzcPMhZwLrBKub4wQZdPvnXGPRve0Etg7YJu0yDXQPHhinYatzn22nUYhjW0PAiS3qrHfTXosn/9ZUPRSBwFACRwRsk/ygVLisHFChLxfWhgPbROCFAevmTEECT/5tqnnoAoHhBKK9Mr+6jJlz0ZTy8sALDufP1owIbJpIAMCTf0aVElWzJeBMtTM9ADS13QsSTV2+EFCxLabWihOkTiCFMQA8+adey5AfAuMR2DOgn3zjeKLPvtdrAyp22Owi82sGBKLPAuDJP4NKiIoQ6BL4bUA/6an8U5dlAk63+nsZ7zamJsMJmibgHNdNda/Ndl2e/JuuGVwfAvURWFXSg8HaoovKVP93wZRz4/u0MhXkXEkS+HTAeonzT7IqITQEChN4T8B2yKn8Syv7BVTwv0vTjhOlSiDastV0+6dak5AbAsUJRFs4zw/ILymuzrxHPjtgAHAJrwHmNVRmW+aTdGGQuvn+zNijLgQgIK0esPvf2QgXL9M480u6LkhD2//udaMyleRcSRKIkKwK559k1UFoCExNYJ+AfvFHU2s15ATHBVT0kCFysikvAg5O/9Bg3aTbP6/6hrYQ6CdwdoNtT//DcP/n3foFLOtzhCetfiX92Ssd2QFQ8ibgZaLvaeBG5Mk/73qH9nkTeGIDbc6gDxz2fY0qzOJFeJpoZIcp2L9t8yqU5ZzJEag7EQfOP7kqgsAQKJXAhwIGABeUquHAyU4OqPDnB2Tka74EDq2pftLtn28dQ3MI9AicX1N70//AO+rzAT3hqvjvdwujBKj791vKHvFYBTjOWQsBzwo4uMI66mQf761FEy4CAQhEJuAB6HX7unGuV2l+nMcFnPJgKK+PXFOQrXYC75B0V8k3qBeh8nrfFAhAAAJHldy+jOPcR+1zeR1T45sccT0TAL+aoECgn8D6kn5T0k36HUleGpsCAQhAYAlJ/y6pbZnJpxXZXsusuIjzHt01W8nIR+p60gT8SuCVnaxYpxe4WR+QdKKk5yZNAOEhAIGyCby1QHtSxKFPekwtbdWTgyr/0bKtzPlaRWDdzusrp7Q+VZLHjQy7ua6XdEL3Pb8X+KBAAAIQGCTw+xnaj2FtSl3b/ilpgUFBq/oeMfmBVwgkJ0BVFm/feVeUtLakZ0haS5JXvaRAAAIQmI2AXy3W5dQnuc7hswld9m9e8WwS4eral0FaZVua80EAAhCAQI+AV9mry59Nch0vjFZbibj+sWG5+5YCAQhAAAIQKJvAopJuDBgAXFnH6P9BmGWNsJ4kyhm1rwcDrjkoKN8hAAEIQAACUxKImA7fPvGTU+pV6PB3BoyEDMOJYCgQgAAEIACBMgl4APGoh9Amfvc4ptrLYyTdFxDITWQGrL0ucEEIQAACbSbgDHtNOPdR1/xLk9B/EhTKm5qEwrUhAAEIQKBVBI4L6uv2bZLyDkGhnNfEoIgmDcG1IQABCECgEgKrSLo3oK9zsrJG85V4VKS73Ed1UzTx+1aVVAVOCgEIQAACORFwit0mfNioa/4sghE+FxSOX09QIAABCEAAAkUJPHqWzKGjHHTVv7sHvvHyzKABgOFv2DgdBIAABCAAgVQJRE16d5ukJaNAPSdoEHBMFEDIAQEIQAACSRFYSNI/gvq2oyOR3CsopHtYxjVSNUEWCEAAAskQ2CmoX3PvtnvewxTnBLCzrfqdR5Hz7x+GEoJAAAIQgEAqBCIuemcfeG5EgN8MGgBcxSqBEasLMkEAAhAIS+BFQf2ZA4DdIlLbNDCwZ0UEhkwQgAAEIBCSwO+D+rM7JS0dkli3a6JIN33Vx3wgKjDkggAEIACBUAT+M6jzt5/8cihSA8LsEhTc8QNy8hUCEIAABCAwSGA+SWcE9WMOAEIN/huEt3jQzIBnDQrKdwhAAAIQgMAAgW0CO//fDMga8uvhAQF6LicFAhCAAAQgMBOB+SVFzWnjp//XziR4pO1rSnowWBBwdSRAyAIBCEAAAuEIbB/Mb/WPjbMPc2KiJMpJwUBemgQ1hIQABCAAgSYILNB5wv5zML/VHwB8qAkoRa/5gmAgk3h3UhQ2x0EAAhCAwFQE3hjMZ/U7/7skPXYq7Ro4OFIWJdYEaKACcEkIQAACCRBw1/olgQOAoxJgOI+IbwgENGTmpHmIsQECEIAABOomsHsgX9X/5O/PD0hau24gZVzPUdUVQcB6YCIFAhCAAAQg0E9gGUk3BPFTg87f37/fL2xqn/8rAFi/iqBAAAIQgAAEBgl8JoCPGub4e9s2GRQ4pe9LSfp3w4B3TgkYskIAAhCAQC0E1pF0b8P+qefoh/3/Qy0UKr6Ipy8MU66ObV4JcLGK9eP0EIAABCCQHoGfNeibxvF/r0gP6bwSOz2wM/GNo3DZ++w0rzhsgQAEIACBzAm8vCGfNK6Pu6BNy9hv3UB2wBMzr+CoDwEIQAAC8xJYWNJfgwcA280rdtpbPl4jcM8+SC5xQtrmRXoIQAACSRB4X42+aNwn/v79LmrT03+vRjjV4jdqAH+9pPV7F+U/BCAAAQhAoEvAD4a31OCH+h36pJ93aKu1HAR8tUL4HvS3QVvhoRcEIAABCExF4CsV+p9JHf2w/f8myX6ytWU+SXtKurtkQ/xa0uNaSw3FIAABCEBgGgJbNjAWbZiTn23bjtMomNKxT5P0qxKCgJu6AYXXcqZAAAIQgAAEBgl4NlrkfP8OCjwwccFBwdv+/T8lndzNeTxbZDT4m9dH3l/Ssm0HhH4QgAAEIDAVgf8p4WFz0AeV/X3bqTRM/OBVJe3RHSh4qSQvgdgP2Pma3WNgQz4/x0gpcfsiPgQgAIEmCDw1eMY/+7nz2jjyf1pju9vGizVk1y0yLTiOhwAEIACBh3zHHwceJvsfLKN8dq4cCgQgAAEIQAACJRHYJwHn/7uSdOU0EIAABCAAAQhI8jLwdyYQADwXa0EAAhCAAAQgUA4BTzc/JQHn/91y1OUsEIAABCAAAQiYwG4JOH8vRbwW5oIABCAAAQhAoBwCT5F0RwIBwBHlqMtZIAABCEAAAhBYRNLZCTj/WyWtgLkgAAEIQAACECiHwKcScP6eeugVCSkQgAAEIAABCJRAYKsCGWWbyAPglMTuqaBAAAIQgAAEIDAlASeMuzKRp3+nv6dAAAIQgAAEIFACgeMTcf5e94YCAQhAAAIQgEAJBHZJxPnfJ2ndEvTlFBCAAAQgAIHsCawt6fZEAgAPUKRAAAIQgAAEIDAlgSUknZ+I879G0lJT6svhEIAABCAAAQhI+moizt8zDbbBYhCAAAQgAAEITE/gPQk5/5OmV5czQAACEIAABCCwiSTn0W9iDv+k1/RqhGtgMghAAAIQgAAEpiOwsqRrE3H+Dhb2nU5djoYABCAAAQhAYCFJpyXk/M+VZJkpEIAABCAAAQhMQeBzCTn/+yVtNIWuHAoBCEAAAhCAgKQdEnL+7vr/JFaDAAQgAAEIQGA6As+W5MF0kw7Aa2r/izsBwGLTqczREIAABCAAgbwJrJ7YoL8HO+MUnp+3ydAeAhCAAAQgMB0BZ85LJdNfr7fhiOlU5mgIQAACEIBA3gQ8ev6UhLr9HQBcImnJvM2G9hCAAAQgAIHiBOZLLM2vnf8DnYDlucVV5kgIQAACEIAABD6W2JO/A4ADMBsEIAABCEAAAsUJbC/JA+l679RT+H+2pIWLq8yREIAABCAAgbwJePR8Kjn+e4GJpyeul7fZ0B4CEIAABCBQnMDTJN2S2JO/g4DdiqvMkRCAAAQgAIG8CayV2Fz/3tP/CZI8YJECgbkIOAvUat1lIB8vadG5fuULBCAAAQiYwBMlXZ3gk79lXh4TQsAEVul0X+0l6QeSrhpSmT2o5QpJ35X0Tkkrgg0CEIBA5gRWlXT5kPay94Qd9b+n/JHtL/PKa/W3lHRSdw7oJJXVK0X9X0mbwBACEIBAhgRWkPTXBJ2/2/lPZGgvVO4j8ARJPyqp8h4vaeW+c/MRAhCAQJsJLCvp3JLaz0kevMrY99TOnP8F22wcdJudwHYVjFa9XtLWs1+WXyEAAQgkT+DRks5I1PlfK2ml5C2AAoUJ7F1hkgq/FvD4AAoEIACBNhJYvPPa9FeJOn+3z89ro1HQaTwC+9RUcQ8aTxz2ggAEIJAMgSUSXNyn/5XBh5IhjaClE6g7PSVBQOkm5IQQgEBDBPzO//SaHqD6nXZZnz3ff/6G2HHZhgk8SdKtDVRerytNkomGjc/lIQCBqQh4tH+qA/4cQFwsaempCHBw0gQ8za+sSHLS83yNEadJ1x2Eh0DOBDxg7oIG289J29vB/W8jz3/O1Vd6aYDK+w1JC+VtBrSHAAQSI+AMfykm+ekFAU7etm1izBG3ZAK/DhAAuEI6adAiJevG6SAAAQhUQeApiab37Tl//z+wCjCcMx0CTw7i/HuV8ieSPI2GAgEIQCAqAa/q969gbWevDR33vwf9LRAVMHLVQ2C/gJXYc2gZkFKP/bkKBCAwGQGnRr85YLs5ruP3fudLcrIiSuYEoiasuFCSUxFTIAABCEQhsJOkexJ3/s7I6rELlMwJePrd7YEr8z8lPTNzG6E+BCDQPAG3lR+pMEPqJE/v0+x7F4uzNV+ZokjgxXmmqUx1HOsA5RVRgCEHBCCQHYGFJX01gbZyVHvsEf87ZGc9FJ6RwFMTqdTOT73njFrwAwQgAIFqCHgs0i8SaSdHBQDuwaBAYA6BjROr2IczanWO7fgAAQhUS8BjkDwWaZRjTeH3L1aLirOnSGDDBCu3MxY+KkXYyAwBCCRDwGOPvCxuCs59lIwnkmk1mXpXq6CrJlrBz5T0uFpJcTEIQCAXAq+XdEeibeNgMHCWpCVzMRx6TkbAKz95VOhgpUnhu2cIbDaZuuwNAQhAYEYCTkXu14wptH/jyHiZpBVn1JYfICDptwlX+Ps6Acz7WU2QegwBCExJ4DGSfp5wWzgYEDhLobO8UiAwK4EDWlDpv0U316w25kcIQGBmAv/Rgpz+/QGAsxR6hhcFAiMJpDIVsL+CD/v8F0nrjtSWHSAAAQg8QmDnFmT2628P7+z0ZGz6iHp8gsBoAh4o0l+JUv38b0nbjFaXPSAAgcwJeMGxY1vS7vXa63v18NLumZsW9Scl8NoW3QjOdvVJ8gVMWgXYHwLZEHhSJ7vo2S1q8xwAOFna67KxIIqWSsB5rn/fshvC2buc6pgCAQhAoEfgTZJubVlb94CkN/YU5D8EihDwWIC7W3Zj3NjJ5LVdERgcAwEItIrAMpK+3bL2zU/+7vF8e6sshTKNEXhXC28Q3yTHsPZ1Y3WKC0OgaQKbS7qyhW2bnf/uTcPl+u0icGgLbxQHAX8ncVC7KiraQGAEgQU7v3+0+37cbUDb/pwDhQKBUgl4PMBnWniz+Ob3QJmDJHl5TwoEINBeAqsnnuRsVLCyb3tNh2ZNE3AQ8NmWBgG+sU6XtGbTkLk+BCBQCYG3Srqtpe2Xu/33qIQaJ4VAHwEHAYe19CZyEHC7pF1II9xncT5CIG0CXr73Jy1us+z8d03bREifGoE2pAqerTvtNEnrpGYU5IUABOYQ8KJmzujXtul9/e2Wnf9uczTmAwRqJND2IMDTH/djbECNNYpLQaAcAut3X+n1O8u2ffaiZzuWg4uzQKAYAb93chTatpurX5+/SdqyGB6OggAEaiTgpXs9Cv6elrdJ1gjy6noAAAwMSURBVG/bGrlyKQjMSGAnSY5G+51m2z47yHGO8GVnpMAPEIBAkwS8et9FLW+H3K56nNILmwTNtSEwSMCZ9doedfvmu1rSqweV5zsEINAYAQflR2bQE+n2x1lMn90YaS4MgVkIvLgbnbbt6X+YPj+U5MVDKBCAQDMEnNDnnZ2sdzdk8NTfe/hYrxnUXBUC4xF4pqTrMrkhvczmUZ0EScuPh4a9IACBkgg8T9K5mbQzdv5+tbFaSew4DQQqJbCGpL9mdHO6W84Dj8gkWGm14uQQeKjX7fiM2hY7f6/IykMGlT8pAstJ+k1mN+pfWGUwqTqKsOkQWKIjqvP3t21l0mGvF/u3fU/SYumYCUkh8AgB37Q/yiwI8M3rrGPrPoKBTxCAQEECTubztk6mu2szbEcOl2T9KRBIloAH6hyR4c3raZGf64xOXiFZyyE4BJoj4JTjnud+YYZthxcn27M59FwZAuUTcEpOD5rr797K4bO7LD1QcKXykXJGCLSSwAsknZVhW+H20IsVvayVVkWp7Als1Ylsb870xr5Dkrv0Vsy+FgAAAsMJ2PGfkWn7YOd/laSnDUfDVgi0g8BakpxaN4en/2E6OosXgUA76jJalEPguZJ+kXGb4HbiDzwclFOZOEt8Ao+R9MvMb3h39R3YGR/h2RIUCORIAMf/8IPQMZIWzbECoHO+BDw48LDMgwBH/l6q9BOMEcj3RshMc49q36aTy/533PsPjYl6V2b2R10IzEVge0l+Pz6suzynbV5HwQlOnjUXHb5AoB0EFpHkRcP+zL3+UFt3vSRnM6RAIHsCG0q6nIZhThDkBEpeXGmB7GsGAFIn4Nd9TuBjh5dTQD+brn+S9ITUDYv8ECiTgFNdnkQjMVcjeUl3PrATKlEgkBKBJ3YHu9K7N3fg4yXFF0/JkMgKgboI+P3gRyQ9QCAwVyDg1c4+LulxdRmC60CgAAGP63mFpB9zD891/7o3wLN/dizAlEMgkB2BLST9kyBgnkbEgdHJ3dcDC2VXK1A4KoFVuothXcE9O889a+fvNULWj2o85IJARAIrSzqNBmVog+JGxQHSwZLWjmg8ZGo9AQ/qe203IKXHbu5u/v73/8dJWrL1tQEFIVABAQ+C8wAi58buv6n4PDcPp011quVHVWADTgmBfgJO5HWQpOu4J2dtk+4kn39/teEzBIoT2EzSlTQ4szY4DoqcXOhLkpxghVXEitc3jpybgMee7CHpt9yDI+9B34d/lPTkuRHyDQIQmIbAUp2b6ps0QGM1QG6E/iXJI469sIgHZ1EgMAmBZbvz9r2ct1e2pNdtNIMHuzMf/HqEAgEIVEBgl+6IWhqk0Q1Sj9HV3SWZN6dnoIIa2Z5TOi312zs9SKfw2m3igOeaTj7/F7enKqAJBOISeBLdkRM3UL1gwIMHPytpSxINxa3gNUrm1Snf0s3BkeNy3b37Ypr/zuDJmh41VlouBQEPEPxA588pdKe5eXM+tvea4A2SHkuVyoKAXwd5jIjzSvhdtbutc74HptH9ps7Kpq/PotagJASCElhPklNrTnMjc+zD/C7tvsP0uuy8xwxa4QuI5eDOqaU9JsROi/o+PQPn41i1gC04BAIQKJmAndXHpIdW16Jxm75xM0PPKPihpN0lrVmyvThdtQQ8HXSr7nLTZ/OUX2rAc0t3yu181ZqQs0MAApMScLatM3jCKbXB6wVUHuTkEeHv73Yhs375pLWzuv1X6s728Px8LyTFa7FyguBe3e/9P4Gn/uoqMWeGQBkE/I5zT2YKVBIE9BpC//eAMScgOrw7XWy1MozHOcYisEaX+VGdrv0LCXgrr+t+beJEWxQIQCARAs5Y9ksax8obx/6g4LLO6wKnPt270xPzUkkEBdPdLO7Kf07X+Xjmxq8luQu6nzmfq+PhAZJf68ya8ZLGFAhAIEECHvxE2tLqGslRDujf3Z4CD0Dz6wMnJnKXNWVuAs62ZzZmZFZ+sifHfnP19mJJL5zbRHyDAARSJLBMx+m4u5QGtbkGdTBQuLbbQ3NMp0J5vYc3dXMTuHu7jSsdLt9ZJnej7mj893WmXX5O0omSLuo4/bt4qg/Tq+Ec/h9mFkyKzTwyQ2B2Au5OPYfGNkxjOxgU9L578ad/dFeDdBfsAZ3Uxrt1llV9Xfep7BmSniDp0bObu/JfPfvET+4bdIMX9za9o+tAPDbiB5LOk3QrdS58nXPdO6nT5f/EymsNF4AABBoj4ARCbqRvoFFOolHuBQUz/fdgRPcm+Enay0fb6Toz2xe7vT7u+fGyyR4h7z8nj3I3u/+cVtrTHHvf/7u7j/f3cf77avd8PudPJZ3Z6a34e3ea5EwysT1OT9M4trikk0vk5Y21SFwYAhConYBfC/gpjYVO0mqsx2nQ2QebjlMHbu+0On79xJTW2ptfLgiBGAScO+AX9Aa0ojdgnEaffQgOPLrfAy39+oYCAQhAQE5/6/e1OAgYUAfaWwd+L+k/aO8gAAEIDBKYv5tgxSvm4QRgQB1oTx34S3cGxuA9z3cIQAACcxFYsru2gN8R4gRgQB1Itw54gOiunZkkzhBKgQAEIDA2Ac/d9shx5mmn6wBw3nnazlMvfe82PVV07MaGHSEAgZgEvOynp4QxYyBPZ0IQkY7d3Wtnx+9ZPhQIQAACpRHwsrjOdU9GwXQcAs47D1s5g9+h5O0vra3jRBCAwAwEnK6WHoE8HAsBRGw7+4nf+TyY0jdDY8VmCECgGgJOR+vG524GCzJYkjpQax24rXvvrVjNrc1ZIQABCIxHwMveerlWd0PyxAgD6kB1deD6zi3p7H284x+vbWIvCECgJgKeNeC88tcQCBAIUQdKrQOXSdpT0hI13ctcBgIQgEAhAl4lbqfO6nVOPsLTIAyoA8XrwNnde4l5/IWaIg6CAASaIuCVB18t6VQCAQIh6sDYdcDLQX9X0uZN3bhcFwIQgECZBNbuDlq6A0cwtiPgybn4k3OK7G7p3iMeXEuBAAQg0DoCHiewj6TLCQQIBKgDD9WBczrjZnaWtHjr7nYUggAEIDCEgBce8gqEx0u6F0dAMJBZHXB6bdd93wMUCEAAAtkSWKkTBOzbGezkkc4pdt0iM3Ybtw78qbs4Dzn6s23uUBwCEBhGwL0Cz+1mGfRiJuM2quwHq8h14KZunXbdpkAAAhCAwAgCi3XXL/+RJI+KjtzAIxv2GawD90hy3d1O0kIj6jo/QwACEIDADAQeL+l9kv5IIEAgFLgOOFD9eXdA33Iz1GU2QwACEIBAQQJOO+yMaAQDPHUPPnU39f2sbp30WBYKBCAAAQjUQGA9SftJ8sCqphp/rpsfez/pO7mVA1H3TlEgAAEIQKBBAr2egZMl3UdAQEBUch3wipeuW3b6rMDX4I3OpSEAAQjMRuCx3fzp35LkEdg8pcOgSB24StLRkl4l6VGzVTh+gwAEIACBeAS8iMqmkg6U5IVVHiQgICCaoQ44IdWvJX1A0obxqjISQQACEIDANAScithTs46SdOkMjqDI0yLHpNnL4DrguuA6sfQ0FYtjIQABCEAgLQJrSHqbpGPJRNj6ngH3/lwg6UhJ23f+r5BWVUVaCEAAAhCoksDKkl4n6TOdd7/nkoQo6aDAA/d+11lk5+DOtNGXSVq2yorDuSEAAQhAoF0EluimJ/bob/cSXMg4grBBwTXdBXZsK6fdXbRdVRFtIAABCECgaQLuOn6xpPdL+qaki+gpqDUo8JO9E0F9uTstbwtJSzVdKbg+BCAAAQjkScBrF2wk6c2SPinph5IuJjCYKjBwPv3zJX1H0se6r2bWl+SZHRQIQAACEIBAaAKLSNqgM/hsW0l7d5LIfL6bUMajz0lYJPlp/s+STpB0hKS9OpkdXy5pLRx96HqNcBCAAAQgMAUBrxK3ejdPwQ7dAOFwSd+XdLqkKzvb7kx4quJt3amWv5X0bUmHdh28p9xt0kmy4wGXXgKaAgEIQAACEIDAEAJLdgYgerrixt3R7G/sZDjcQ9KHJX2qm63O3eROVesc9V6c5ryu83U2O2dD7P3ZKc+Us+CWvv28/xXdcziBks/ple5+2h1o57nzftWxr6R3SnqDpJd2nuSfKWnVzm9+JUKBAAQCE/j/1xb2uuEXdKgAAAAASUVORK5CYII=;" parent="YhhQH7N-noh5OKzbA0su-1" vertex="1">
          <mxGeometry x="1070" y="182" width="18" height="18" as="geometry" />
        </mxCell>
        <mxCell id="YhhQH7N-noh5OKzbA0su-19" value="" style="endArrow=none;html=1;rounded=0;" parent="YhhQH7N-noh5OKzbA0su-1" edge="1">
          <mxGeometry relative="1" as="geometry">
            <mxPoint x="10" y="266" as="sourcePoint" />
            <mxPoint x="170" y="266" as="targetPoint" />
          </mxGeometry>
        </mxCell>
        <mxCell id="YhhQH7N-noh5OKzbA0su-20" value="&lt;font style=&quot;font-size: 16px;&quot;&gt;Reserva&lt;/font&gt;" style="text;strokeColor=none;fillColor=none;align=center;verticalAlign=top;spacingLeft=4;spacingRight=4;overflow=hidden;rotatable=0;points=[[0,0.5],[1,0.5]];portConstraint=eastwest;whiteSpace=wrap;html=1;" parent="YhhQH7N-noh5OKzbA0su-1" vertex="1">
          <mxGeometry x="10" y="230" width="160" height="26" as="geometry" />
        </mxCell>
        <mxCell id="YhhQH7N-noh5OKzbA0su-22" value="" style="endArrow=none;html=1;rounded=0;" parent="YhhQH7N-noh5OKzbA0su-1" edge="1">
          <mxGeometry width="50" height="50" relative="1" as="geometry">
            <mxPoint x="180" y="510" as="sourcePoint" />
            <mxPoint x="180" y="210" as="targetPoint" />
          </mxGeometry>
        </mxCell>
        <mxCell id="YhhQH7N-noh5OKzbA0su-23" value="" style="endArrow=none;html=1;rounded=0;" parent="YhhQH7N-noh5OKzbA0su-1" edge="1">
          <mxGeometry relative="1" as="geometry">
            <mxPoint x="190" y="266" as="sourcePoint" />
            <mxPoint x="350" y="266" as="targetPoint" />
          </mxGeometry>
        </mxCell>
        <mxCell id="YhhQH7N-noh5OKzbA0su-24" value="&lt;font style=&quot;font-size: 16px;&quot;&gt;Cliente&lt;/font&gt;" style="text;strokeColor=none;fillColor=none;align=center;verticalAlign=top;spacingLeft=4;spacingRight=4;overflow=hidden;rotatable=0;points=[[0,0.5],[1,0.5]];portConstraint=eastwest;whiteSpace=wrap;html=1;" parent="YhhQH7N-noh5OKzbA0su-1" vertex="1">
          <mxGeometry x="190" y="230" width="160" height="26" as="geometry" />
        </mxCell>
        <mxCell id="YhhQH7N-noh5OKzbA0su-25" value="" style="endArrow=none;html=1;rounded=0;" parent="YhhQH7N-noh5OKzbA0su-1" edge="1">
          <mxGeometry width="50" height="50" relative="1" as="geometry">
            <mxPoint x="360" y="510" as="sourcePoint" />
            <mxPoint x="360" y="210" as="targetPoint" />
          </mxGeometry>
        </mxCell>
        <mxCell id="YhhQH7N-noh5OKzbA0su-26" value="" style="endArrow=none;html=1;rounded=0;" parent="YhhQH7N-noh5OKzbA0su-1" edge="1">
          <mxGeometry relative="1" as="geometry">
            <mxPoint x="373.5" y="269" as="sourcePoint" />
            <mxPoint x="533.5" y="269" as="targetPoint" />
          </mxGeometry>
        </mxCell>
        <mxCell id="YhhQH7N-noh5OKzbA0su-27" value="&lt;font style=&quot;font-size: 16px;&quot;&gt;Ruta&lt;/font&gt;" style="text;strokeColor=none;fillColor=none;align=center;verticalAlign=top;spacingLeft=4;spacingRight=4;overflow=hidden;rotatable=0;points=[[0,0.5],[1,0.5]];portConstraint=eastwest;whiteSpace=wrap;html=1;" parent="YhhQH7N-noh5OKzbA0su-1" vertex="1">
          <mxGeometry x="373.5" y="233" width="160" height="26" as="geometry" />
        </mxCell>
        <mxCell id="YhhQH7N-noh5OKzbA0su-28" value="" style="endArrow=none;html=1;rounded=0;" parent="YhhQH7N-noh5OKzbA0su-1" edge="1">
          <mxGeometry width="50" height="50" relative="1" as="geometry">
            <mxPoint x="543.5" y="513" as="sourcePoint" />
            <mxPoint x="543.5" y="213" as="targetPoint" />
          </mxGeometry>
        </mxCell>
        <mxCell id="YhhQH7N-noh5OKzbA0su-29" value="" style="endArrow=none;html=1;rounded=0;" parent="YhhQH7N-noh5OKzbA0su-1" edge="1">
          <mxGeometry relative="1" as="geometry">
            <mxPoint x="560" y="269" as="sourcePoint" />
            <mxPoint x="720" y="269" as="targetPoint" />
          </mxGeometry>
        </mxCell>
        <mxCell id="YhhQH7N-noh5OKzbA0su-30" value="&lt;font style=&quot;font-size: 16px;&quot;&gt;Hospedajes&lt;/font&gt;" style="text;strokeColor=none;fillColor=none;align=center;verticalAlign=top;spacingLeft=4;spacingRight=4;overflow=hidden;rotatable=0;points=[[0,0.5],[1,0.5]];portConstraint=eastwest;whiteSpace=wrap;html=1;" parent="YhhQH7N-noh5OKzbA0su-1" vertex="1">
          <mxGeometry x="560" y="233" width="160" height="26" as="geometry" />
        </mxCell>
        <mxCell id="YhhQH7N-noh5OKzbA0su-31" value="" style="endArrow=none;html=1;rounded=0;" parent="YhhQH7N-noh5OKzbA0su-1" edge="1">
          <mxGeometry width="50" height="50" relative="1" as="geometry">
            <mxPoint x="730" y="513" as="sourcePoint" />
            <mxPoint x="730" y="213" as="targetPoint" />
          </mxGeometry>
        </mxCell>
        <mxCell id="YhhQH7N-noh5OKzbA0su-32" value="" style="endArrow=none;html=1;rounded=0;" parent="YhhQH7N-noh5OKzbA0su-1" edge="1">
          <mxGeometry relative="1" as="geometry">
            <mxPoint x="740" y="269" as="sourcePoint" />
            <mxPoint x="900" y="269" as="targetPoint" />
          </mxGeometry>
        </mxCell>
        <mxCell id="YhhQH7N-noh5OKzbA0su-33" value="&lt;font style=&quot;font-size: 16px;&quot;&gt;Pack&lt;/font&gt;" style="text;strokeColor=none;fillColor=none;align=center;verticalAlign=top;spacingLeft=4;spacingRight=4;overflow=hidden;rotatable=0;points=[[0,0.5],[1,0.5]];portConstraint=eastwest;whiteSpace=wrap;html=1;" parent="YhhQH7N-noh5OKzbA0su-1" vertex="1">
          <mxGeometry x="740" y="233" width="160" height="26" as="geometry" />
        </mxCell>
        <mxCell id="YhhQH7N-noh5OKzbA0su-34" value="" style="endArrow=none;html=1;rounded=0;" parent="YhhQH7N-noh5OKzbA0su-1" edge="1">
          <mxGeometry width="50" height="50" relative="1" as="geometry">
            <mxPoint x="910" y="513" as="sourcePoint" />
            <mxPoint x="910" y="213" as="targetPoint" />
          </mxGeometry>
        </mxCell>
        <mxCell id="YhhQH7N-noh5OKzbA0su-35" value="" style="endArrow=none;html=1;rounded=0;" parent="YhhQH7N-noh5OKzbA0su-1" edge="1">
          <mxGeometry relative="1" as="geometry">
            <mxPoint x="923.5" y="272" as="sourcePoint" />
            <mxPoint x="1083.5" y="272" as="targetPoint" />
          </mxGeometry>
        </mxCell>
        <mxCell id="YhhQH7N-noh5OKzbA0su-36" value="&lt;font style=&quot;font-size: 16px;&quot;&gt;Estado&lt;/font&gt;" style="text;strokeColor=none;fillColor=none;align=center;verticalAlign=top;spacingLeft=4;spacingRight=4;overflow=hidden;rotatable=0;points=[[0,0.5],[1,0.5]];portConstraint=eastwest;whiteSpace=wrap;html=1;" parent="YhhQH7N-noh5OKzbA0su-1" vertex="1">
          <mxGeometry x="923.5" y="236" width="160" height="26" as="geometry" />
        </mxCell>
        <mxCell id="YhhQH7N-noh5OKzbA0su-37" value="" style="endArrow=none;html=1;rounded=0;" parent="YhhQH7N-noh5OKzbA0su-1" edge="1">
          <mxGeometry width="50" height="50" relative="1" as="geometry">
            <mxPoint x="1093.5" y="516" as="sourcePoint" />
            <mxPoint x="1093.5" y="216" as="targetPoint" />
          </mxGeometry>
        </mxCell>
        <mxCell id="YhhQH7N-noh5OKzbA0su-38" value="&lt;font style=&quot;font-size: 16px;&quot;&gt;1-4 / 4&lt;/font&gt;" style="text;html=1;align=center;verticalAlign=middle;resizable=0;points=[];autosize=1;strokeColor=none;fillColor=none;" parent="YhhQH7N-noh5OKzbA0su-1" vertex="1">
          <mxGeometry x="875" y="175" width="70" height="30" as="geometry" />
        </mxCell>
        <mxCell id="YhhQH7N-noh5OKzbA0su-39" value="&lt;font style=&quot;font-size: 16px;&quot;&gt;123456ASDF&lt;/font&gt;" style="text;strokeColor=none;fillColor=none;align=center;verticalAlign=top;spacingLeft=4;spacingRight=4;overflow=hidden;rotatable=0;points=[[0,0.5],[1,0.5]];portConstraint=eastwest;whiteSpace=wrap;html=1;" parent="YhhQH7N-noh5OKzbA0su-1" vertex="1">
          <mxGeometry x="10" y="290" width="160" height="26" as="geometry" />
        </mxCell>
        <mxCell id="YhhQH7N-noh5OKzbA0su-40" value="&lt;font style=&quot;font-size: 16px;&quot;&gt;Ernesto CÃ³rdoba&lt;/font&gt;" style="text;strokeColor=none;fillColor=none;align=center;verticalAlign=top;spacingLeft=4;spacingRight=4;overflow=hidden;rotatable=0;points=[[0,0.5],[1,0.5]];portConstraint=eastwest;whiteSpace=wrap;html=1;" parent="YhhQH7N-noh5OKzbA0su-1" vertex="1">
          <mxGeometry x="190" y="290" width="160" height="26" as="geometry" />
        </mxCell>
        <mxCell id="YhhQH7N-noh5OKzbA0su-41" value="&lt;font style=&quot;font-size: 16px;&quot;&gt;Francesa 1&lt;/font&gt;" style="text;strokeColor=none;fillColor=none;align=center;verticalAlign=top;spacingLeft=4;spacingRight=4;overflow=hidden;rotatable=0;points=[[0,0.5],[1,0.5]];portConstraint=eastwest;whiteSpace=wrap;html=1;" parent="YhhQH7N-noh5OKzbA0su-1" vertex="1">
          <mxGeometry x="373.5" y="293" width="160" height="26" as="geometry" />
        </mxCell>
        <mxCell id="YhhQH7N-noh5OKzbA0su-42" value="&lt;font style=&quot;font-size: 16px;&quot;&gt;3&lt;/font&gt;" style="text;strokeColor=none;fillColor=none;align=center;verticalAlign=top;spacingLeft=4;spacingRight=4;overflow=hidden;rotatable=0;points=[[0,0.5],[1,0.5]];portConstraint=eastwest;whiteSpace=wrap;html=1;" parent="YhhQH7N-noh5OKzbA0su-1" vertex="1">
          <mxGeometry x="560" y="293" width="160" height="26" as="geometry" />
        </mxCell>
        <mxCell id="YhhQH7N-noh5OKzbA0su-43" value="&lt;font style=&quot;font-size: 16px;&quot;&gt;Adventure Pack&lt;/font&gt;" style="text;strokeColor=none;fillColor=none;align=center;verticalAlign=top;spacingLeft=4;spacingRight=4;overflow=hidden;rotatable=0;points=[[0,0.5],[1,0.5]];portConstraint=eastwest;whiteSpace=wrap;html=1;" parent="YhhQH7N-noh5OKzbA0su-1" vertex="1">
          <mxGeometry x="740" y="293" width="160" height="26" as="geometry" />
        </mxCell>
        <mxCell id="YhhQH7N-noh5OKzbA0su-44" value="&lt;font style=&quot;font-size: 16px; color: light-dark(rgb(51, 0, 255), rgb(237, 237, 237));&quot;&gt;Pendiente&lt;/font&gt;" style="text;strokeColor=none;fillColor=none;align=center;verticalAlign=top;spacingLeft=4;spacingRight=4;overflow=hidden;rotatable=0;points=[[0,0.5],[1,0.5]];portConstraint=eastwest;whiteSpace=wrap;html=1;" parent="YhhQH7N-noh5OKzbA0su-1" vertex="1">
          <mxGeometry x="923.5" y="296" width="160" height="26" as="geometry" />
        </mxCell>
        <mxCell id="YhhQH7N-noh5OKzbA0su-45" value="&lt;font style=&quot;font-size: 16px;&quot;&gt;777666AAA&lt;/font&gt;" style="text;strokeColor=none;fillColor=none;align=center;verticalAlign=top;spacingLeft=4;spacingRight=4;overflow=hidden;rotatable=0;points=[[0,0.5],[1,0.5]];portConstraint=eastwest;whiteSpace=wrap;html=1;" parent="YhhQH7N-noh5OKzbA0su-1" vertex="1">
          <mxGeometry x="10" y="330" width="160" height="26" as="geometry" />
        </mxCell>
        <mxCell id="YhhQH7N-noh5OKzbA0su-46" value="&lt;font style=&quot;font-size: 16px;&quot;&gt;Julia MartÃ­nez&lt;/font&gt;" style="text;strokeColor=none;fillColor=none;align=center;verticalAlign=top;spacingLeft=4;spacingRight=4;overflow=hidden;rotatable=0;points=[[0,0.5],[1,0.5]];portConstraint=eastwest;whiteSpace=wrap;html=1;" parent="YhhQH7N-noh5OKzbA0su-1" vertex="1">
          <mxGeometry x="190" y="330" width="160" height="26" as="geometry" />
        </mxCell>
        <mxCell id="YhhQH7N-noh5OKzbA0su-47" value="&lt;font style=&quot;font-size: 16px;&quot;&gt;TitÃ¡nica&lt;/font&gt;" style="text;strokeColor=none;fillColor=none;align=center;verticalAlign=top;spacingLeft=4;spacingRight=4;overflow=hidden;rotatable=0;points=[[0,0.5],[1,0.5]];portConstraint=eastwest;whiteSpace=wrap;html=1;" parent="YhhQH7N-noh5OKzbA0su-1" vertex="1">
          <mxGeometry x="373.5" y="333" width="160" height="26" as="geometry" />
        </mxCell>
        <mxCell id="YhhQH7N-noh5OKzbA0su-48" value="&lt;font style=&quot;font-size: 16px;&quot;&gt;5&lt;/font&gt;" style="text;strokeColor=none;fillColor=none;align=center;verticalAlign=top;spacingLeft=4;spacingRight=4;overflow=hidden;rotatable=0;points=[[0,0.5],[1,0.5]];portConstraint=eastwest;whiteSpace=wrap;html=1;" parent="YhhQH7N-noh5OKzbA0su-1" vertex="1">
          <mxGeometry x="560" y="333" width="160" height="26" as="geometry" />
        </mxCell>
        <mxCell id="YhhQH7N-noh5OKzbA0su-49" value="&lt;span style=&quot;font-size: 16px;&quot;&gt;Premium Pack&lt;/span&gt;" style="text;strokeColor=none;fillColor=none;align=center;verticalAlign=top;spacingLeft=4;spacingRight=4;overflow=hidden;rotatable=0;points=[[0,0.5],[1,0.5]];portConstraint=eastwest;whiteSpace=wrap;html=1;" parent="YhhQH7N-noh5OKzbA0su-1" vertex="1">
          <mxGeometry x="740" y="333" width="160" height="26" as="geometry" />
        </mxCell>
        <mxCell id="YhhQH7N-noh5OKzbA0su-50" value="&lt;font style=&quot;font-size: 16px; color: light-dark(rgb(3, 165, 22), rgb(237, 237, 237));&quot;&gt;Terminada&lt;/font&gt;" style="text;strokeColor=none;fillColor=none;align=center;verticalAlign=top;spacingLeft=4;spacingRight=4;overflow=hidden;rotatable=0;points=[[0,0.5],[1,0.5]];portConstraint=eastwest;whiteSpace=wrap;html=1;" parent="YhhQH7N-noh5OKzbA0su-1" vertex="1">
          <mxGeometry x="923.5" y="336" width="160" height="26" as="geometry" />
        </mxCell>
        <mxCell id="YhhQH7N-noh5OKzbA0su-58" value="&lt;font style=&quot;font-size: 16px;&quot;&gt;QWERTY8912&lt;/font&gt;" style="text;strokeColor=none;fillColor=none;align=center;verticalAlign=top;spacingLeft=4;spacingRight=4;overflow=hidden;rotatable=0;points=[[0,0.5],[1,0.5]];portConstraint=eastwest;whiteSpace=wrap;html=1;" parent="YhhQH7N-noh5OKzbA0su-1" vertex="1">
          <mxGeometry x="10" y="370" width="160" height="26" as="geometry" />
        </mxCell>
        <mxCell id="YhhQH7N-noh5OKzbA0su-59" value="&lt;font style=&quot;font-size: 16px;&quot;&gt;Paco PÃ©rez&lt;/font&gt;" style="text;strokeColor=none;fillColor=none;align=center;verticalAlign=top;spacingLeft=4;spacingRight=4;overflow=hidden;rotatable=0;points=[[0,0.5],[1,0.5]];portConstraint=eastwest;whiteSpace=wrap;html=1;" parent="YhhQH7N-noh5OKzbA0su-1" vertex="1">
          <mxGeometry x="190" y="370" width="160" height="26" as="geometry" />
        </mxCell>
        <mxCell id="YhhQH7N-noh5OKzbA0su-60" value="&lt;font style=&quot;font-size: 16px;&quot;&gt;Alemana 2&lt;/font&gt;" style="text;strokeColor=none;fillColor=none;align=center;verticalAlign=top;spacingLeft=4;spacingRight=4;overflow=hidden;rotatable=0;points=[[0,0.5],[1,0.5]];portConstraint=eastwest;whiteSpace=wrap;html=1;" parent="YhhQH7N-noh5OKzbA0su-1" vertex="1">
          <mxGeometry x="373.5" y="373" width="160" height="26" as="geometry" />
        </mxCell>
        <mxCell id="YhhQH7N-noh5OKzbA0su-61" value="&lt;font style=&quot;font-size: 16px;&quot;&gt;4&lt;/font&gt;" style="text;strokeColor=none;fillColor=none;align=center;verticalAlign=top;spacingLeft=4;spacingRight=4;overflow=hidden;rotatable=0;points=[[0,0.5],[1,0.5]];portConstraint=eastwest;whiteSpace=wrap;html=1;" parent="YhhQH7N-noh5OKzbA0su-1" vertex="1">
          <mxGeometry x="560" y="373" width="160" height="26" as="geometry" />
        </mxCell>
        <mxCell id="YhhQH7N-noh5OKzbA0su-62" value="&lt;span style=&quot;font-size: 16px;&quot;&gt;Adventure Pack&lt;/span&gt;" style="text;strokeColor=none;fillColor=none;align=center;verticalAlign=top;spacingLeft=4;spacingRight=4;overflow=hidden;rotatable=0;points=[[0,0.5],[1,0.5]];portConstraint=eastwest;whiteSpace=wrap;html=1;" parent="YhhQH7N-noh5OKzbA0su-1" vertex="1">
          <mxGeometry x="740" y="373" width="160" height="26" as="geometry" />
        </mxCell>
        <mxCell id="YhhQH7N-noh5OKzbA0su-63" value="&lt;font style=&quot;font-size: 16px; color: light-dark(rgb(255, 162, 0), rgb(237, 237, 237));&quot;&gt;En curso&lt;/font&gt;" style="text;strokeColor=none;fillColor=none;align=center;verticalAlign=top;spacingLeft=4;spacingRight=4;overflow=hidden;rotatable=0;points=[[0,0.5],[1,0.5]];portConstraint=eastwest;whiteSpace=wrap;html=1;" parent="YhhQH7N-noh5OKzbA0su-1" vertex="1">
          <mxGeometry x="923.5" y="376" width="160" height="26" as="geometry" />
        </mxCell>
        <mxCell id="YhhQH7N-noh5OKzbA0su-64" value="&lt;font style=&quot;font-size: 16px;&quot;&gt;TEST1&lt;/font&gt;" style="text;strokeColor=none;fillColor=none;align=center;verticalAlign=top;spacingLeft=4;spacingRight=4;overflow=hidden;rotatable=0;points=[[0,0.5],[1,0.5]];portConstraint=eastwest;whiteSpace=wrap;html=1;" parent="YhhQH7N-noh5OKzbA0su-1" vertex="1">
          <mxGeometry x="10" y="410" width="160" height="26" as="geometry" />
        </mxCell>
        <mxCell id="YhhQH7N-noh5OKzbA0su-65" value="&lt;font style=&quot;font-size: 16px;&quot;&gt;TEST TESTEZ&lt;/font&gt;" style="text;strokeColor=none;fillColor=none;align=center;verticalAlign=top;spacingLeft=4;spacingRight=4;overflow=hidden;rotatable=0;points=[[0,0.5],[1,0.5]];portConstraint=eastwest;whiteSpace=wrap;html=1;" parent="YhhQH7N-noh5OKzbA0su-1" vertex="1">
          <mxGeometry x="190" y="410" width="160" height="26" as="geometry" />
        </mxCell>
        <mxCell id="YhhQH7N-noh5OKzbA0su-66" value="&lt;span style=&quot;font-size: 16px;&quot;&gt;De testeo&lt;/span&gt;" style="text;strokeColor=none;fillColor=none;align=center;verticalAlign=top;spacingLeft=4;spacingRight=4;overflow=hidden;rotatable=0;points=[[0,0.5],[1,0.5]];portConstraint=eastwest;whiteSpace=wrap;html=1;" parent="YhhQH7N-noh5OKzbA0su-1" vertex="1">
          <mxGeometry x="373.5" y="413" width="160" height="26" as="geometry" />
        </mxCell>
        <mxCell id="YhhQH7N-noh5OKzbA0su-67" value="&lt;span style=&quot;font-size: 16px;&quot;&gt;1&lt;/span&gt;" style="text;strokeColor=none;fillColor=none;align=center;verticalAlign=top;spacingLeft=4;spacingRight=4;overflow=hidden;rotatable=0;points=[[0,0.5],[1,0.5]];portConstraint=eastwest;whiteSpace=wrap;html=1;" parent="YhhQH7N-noh5OKzbA0su-1" vertex="1">
          <mxGeometry x="560" y="413" width="160" height="26" as="geometry" />
        </mxCell>
        <mxCell id="YhhQH7N-noh5OKzbA0su-68" value="&lt;font style=&quot;font-size: 16px;&quot;&gt;Test Pack&lt;/font&gt;" style="text;strokeColor=none;fillColor=none;align=center;verticalAlign=top;spacingLeft=4;spacingRight=4;overflow=hidden;rotatable=0;points=[[0,0.5],[1,0.5]];portConstraint=eastwest;whiteSpace=wrap;html=1;" parent="YhhQH7N-noh5OKzbA0su-1" vertex="1">
          <mxGeometry x="740" y="413" width="160" height="26" as="geometry" />
        </mxCell>
        <mxCell id="YhhQH7N-noh5OKzbA0su-69" value="&lt;font style=&quot;font-size: 16px;&quot;&gt;TEST&lt;/font&gt;" style="text;strokeColor=none;fillColor=none;align=center;verticalAlign=top;spacingLeft=4;spacingRight=4;overflow=hidden;rotatable=0;points=[[0,0.5],[1,0.5]];portConstraint=eastwest;whiteSpace=wrap;html=1;" parent="YhhQH7N-noh5OKzbA0su-1" vertex="1">
          <mxGeometry x="923.5" y="416" width="160" height="26" as="geometry" />
        </mxCell>
      </root>
    </mxGraphModel>
  </diagram>
</mxfile>
